<svg width="176" height="176" viewBox="0 0 176 176" fill="none" xmlns="http://www.w3.org/2000/svg">
<path d="M105.562 125.797H94.349C94.0431 125.795 93.7438 125.707 93.4856 125.543C93.2274 125.379 93.0209 125.145 92.8896 124.869L84.874 107.747C83.8509 105.585 82.2367 103.758 80.2181 102.475C78.1996 101.193 75.8592 100.508 73.4678 100.5H38.0928C35.6997 100.508 33.3576 101.193 31.3379 102.477C29.3181 103.76 27.7033 105.59 26.6803 107.753L18.674 124.859C18.5432 125.139 18.3356 125.375 18.0756 125.541C17.8156 125.707 17.5138 125.796 17.2053 125.797H13.1115C9.76832 125.799 6.56267 127.128 4.19809 129.492C1.8335 131.855 0.503161 135.06 0.499023 138.403V155.778C0.500677 157.864 1.32981 159.864 2.80445 161.339C4.27909 162.814 6.27878 163.644 8.36465 163.647H15.0615C15.7755 167 17.619 170.007 20.2839 172.164C22.9488 174.322 26.2735 175.499 29.7021 175.499C33.1308 175.499 36.4555 174.322 39.1204 172.164C41.7853 170.007 43.6288 167 44.3428 163.647H74.3303C75.0738 166.975 76.929 169.95 79.5901 172.082C82.2512 174.214 85.5594 175.376 88.9693 175.376C92.3793 175.376 95.6874 174.214 98.3485 172.082C101.01 169.95 102.865 166.975 103.608 163.647H110.305C112.391 163.644 114.391 162.814 115.865 161.339C117.34 159.864 118.169 157.864 118.171 155.778V138.403C118.167 135.061 116.837 131.857 114.474 129.494C112.111 127.13 108.904 125.801 105.562 125.797ZM29.7053 169.25C27.3904 169.25 25.1704 168.33 23.5336 166.694C21.8967 165.057 20.9771 162.837 20.9771 160.522C20.9771 158.207 21.8967 155.987 23.5336 154.35C25.1704 152.713 27.3904 151.794 29.7053 151.794C32.0201 151.794 34.2402 152.713 35.877 154.35C37.5138 155.987 38.4334 158.207 38.4334 160.522C38.4334 162.837 37.5138 165.057 35.877 166.694C34.2402 168.33 32.0201 169.25 29.7053 169.25ZM88.974 169.25C86.6592 169.25 84.4391 168.33 82.8023 166.694C81.1655 165.057 80.2459 162.837 80.2459 160.522C80.2459 158.207 81.1655 155.987 82.8023 154.35C84.4391 152.713 86.6592 151.794 88.974 151.794C91.2889 151.794 93.5089 152.713 95.1457 154.35C96.7826 155.987 97.7021 158.207 97.7021 160.522C97.7021 162.837 96.7826 165.057 95.1457 166.694C93.5089 168.33 91.2889 169.25 88.974 169.25ZM111.924 155.781C111.918 156.208 111.745 156.615 111.444 156.917C111.142 157.218 110.735 157.39 110.308 157.397H103.612C102.869 154.067 101.014 151.09 98.3529 148.957C95.6913 146.823 92.3821 145.661 88.9709 145.661C85.5597 145.661 82.2505 146.823 79.5889 148.957C76.9273 151.09 75.0725 154.067 74.3303 157.397H44.3428C43.5992 154.069 41.744 151.094 39.0829 148.962C36.4218 146.829 33.1136 145.668 29.7037 145.668C26.2938 145.668 22.9856 146.829 20.3245 148.962C17.6634 151.094 15.8082 154.069 15.0646 157.397H8.36465C7.93739 157.391 7.52927 157.219 7.22741 156.916C6.92556 156.614 6.75388 156.205 6.74902 155.778V138.403C6.75068 136.717 7.42131 135.101 8.61366 133.909C9.806 132.718 11.4226 132.048 13.1084 132.047H17.2084C18.7023 132.042 20.1642 131.613 21.4247 130.811C22.6851 130.009 23.6926 128.867 24.3303 127.516L32.3396 110.409C32.8556 109.319 33.6697 108.396 34.6877 107.749C35.7058 107.101 36.8862 106.755 38.0928 106.75H73.4678C74.6732 106.755 75.8527 107.1 76.8701 107.747C77.8876 108.393 78.7014 109.314 79.2178 110.403L86.424 125.797H55.3334C55.0262 125.795 54.7258 125.707 54.467 125.541C54.2081 125.376 54.0014 125.141 53.8709 124.863L49.3084 115.112C48.9482 114.376 48.3132 113.811 47.5403 113.539C46.7674 113.266 45.9184 113.308 45.1762 113.656C44.434 114.003 43.8581 114.629 43.5724 115.397C43.2868 116.165 43.3143 117.014 43.649 117.762L48.2115 127.513C48.8486 128.865 49.8563 130.008 51.1175 130.81C52.3788 131.613 53.8418 132.04 55.3365 132.044H92.4303C93.6959 131.925 104.04 132.122 105.565 132.044C107.25 132.045 108.867 132.716 110.058 133.908C111.25 135.101 111.92 136.717 111.921 138.403L111.924 155.781ZM149.115 0.5C142.12 0.50827 135.413 3.2907 130.467 8.23694C125.521 13.1832 122.739 19.8893 122.73 26.8844C122.73 41.8594 137.908 60.0625 144.437 67.1906C145.034 67.8341 145.758 68.3473 146.563 68.6983C147.368 69.0493 148.237 69.2304 149.115 69.2304C149.993 69.2304 150.861 69.0493 151.666 68.6983C152.471 68.3473 153.195 67.8341 153.793 67.1906C160.321 60.0625 175.499 41.8594 175.499 26.8844C175.491 19.8893 172.708 13.1832 167.762 8.23694C162.816 3.2907 156.11 0.50827 149.115 0.5ZM149.046 62.9719C144.34 57.8281 128.98 40.0281 128.98 26.8844C128.98 21.5444 131.102 16.4232 134.877 12.6472C138.653 8.87129 143.775 6.75 149.115 6.75C154.455 6.75 159.576 8.87129 163.352 12.6472C167.128 16.4232 169.249 21.5444 169.249 26.8844C169.249 40.0281 153.89 57.8281 149.046 62.9719Z" fill="#91824C"/>
<path d="M149.116 14.3843C145.8 14.3843 142.621 15.7012 140.277 18.0454C137.933 20.3896 136.616 23.5691 136.616 26.8843C136.616 30.1995 137.933 33.3789 140.277 35.7231C142.621 38.0673 145.8 39.3843 149.116 39.3843C152.431 39.3843 155.61 38.0673 157.955 35.7231C160.299 33.3789 161.616 30.1995 161.616 26.8843C161.616 23.5691 160.299 20.3896 157.955 18.0454C155.61 15.7012 152.431 14.3843 149.116 14.3843ZM149.116 33.1343C147.458 33.1343 145.868 32.4758 144.696 31.3037C143.524 30.1316 142.866 28.5419 142.866 26.8843C142.866 25.2267 143.524 23.637 144.696 22.4649C145.868 21.2928 147.458 20.6343 149.116 20.6343C150.773 20.6343 152.363 21.2928 153.535 22.4649C154.707 23.637 155.366 25.2267 155.366 26.8843C155.366 28.5419 154.707 30.1316 153.535 31.3037C152.363 32.4758 150.773 33.1343 149.116 33.1343ZM113.344 23.7499H97.7188C96.89 23.7499 96.0952 24.0791 95.5091 24.6652C94.9231 25.2512 94.5938 26.0461 94.5938 26.8749C94.5938 27.7037 94.9231 28.4986 95.5091 29.0846C96.0952 29.6707 96.89 29.9999 97.7188 29.9999H113.344C114.173 29.9999 114.967 29.6707 115.554 29.0846C116.14 28.4986 116.469 27.7037 116.469 26.8749C116.469 26.0461 116.14 25.2512 115.554 24.6652C114.967 24.0791 114.173 23.7499 113.344 23.7499ZM107.656 84.8749C107.656 85.7037 107.986 86.4986 108.572 87.0846C109.158 87.6707 109.953 87.9999 110.781 87.9999H126.406C127.235 87.9999 128.03 87.6707 128.616 87.0846C129.202 86.4986 129.531 85.7037 129.531 84.8749C129.531 84.0461 129.202 83.2512 128.616 82.6652C128.03 82.0791 127.235 81.7499 126.406 81.7499H110.781C109.953 81.7499 109.158 82.0791 108.572 82.6652C107.986 83.2512 107.656 84.0461 107.656 84.8749ZM15.0938 79.178C11.9688 85.3968 28.5032 88.1437 32.6563 87.9999C33.4851 87.9958 34.2783 87.6625 34.8615 87.0736C35.4446 86.4846 35.7699 85.6881 35.7657 84.8593C35.7616 84.0305 35.4283 83.2373 34.8394 82.6542C34.2504 82.071 33.4539 81.7458 32.6251 81.7499C27.9619 81.7486 23.3858 80.4863 19.3813 78.0968C18.6691 77.6728 17.8178 77.5486 17.0141 77.7513C16.2104 77.954 15.5199 78.467 15.0938 79.178ZM155.431 91.5312C156.153 91.938 157.006 92.0425 157.804 91.8217C158.603 91.6009 159.281 91.0728 159.691 90.353C162.675 84.1249 146.144 81.6593 142.034 81.7499C141.624 81.7497 141.218 81.8303 140.838 81.9872C140.459 82.1441 140.115 82.3741 139.824 82.6641C139.534 82.9541 139.304 83.2985 139.146 83.6776C138.989 84.0566 138.908 84.463 138.908 84.8733C138.908 85.2837 138.988 85.6901 139.145 86.0693C139.302 86.4486 139.532 86.7932 139.822 87.0835C140.112 87.3738 140.456 87.6042 140.836 87.7614C141.215 87.9187 141.621 87.9997 142.031 87.9999C146.727 88.0053 151.343 89.2216 155.431 91.5312ZM170.313 126.712C169.95 126.519 169.553 126.398 169.144 126.359C168.735 126.319 168.323 126.36 167.93 126.48C167.537 126.601 167.171 126.797 166.855 127.059C166.538 127.321 166.276 127.643 166.084 128.006C164.81 130.406 163.181 132.6 161.253 134.516C159.353 137.091 153.516 138.519 155.741 142.516C158.841 146.472 163.141 141.025 165.672 138.934C167.919 136.197 175.041 129.759 170.313 126.712ZM166.425 96.9187C165.716 97.3466 165.206 98.0386 165.006 98.8425C164.807 99.6465 164.935 100.497 165.363 101.206C167.778 105.231 169.113 109.811 169.238 114.503C169.259 115.332 169.609 116.118 170.21 116.689C170.812 117.26 171.615 117.568 172.444 117.547C173.273 117.525 174.059 117.175 174.63 116.574C175.201 115.973 175.509 115.169 175.488 114.341C175.478 110.253 172.572 93.7624 166.425 96.9187ZM18.6688 26.9343C14.9876 28.4968 1.12196 38.378 6.68759 42.5155C7.03001 42.742 7.4137 42.8987 7.81673 42.9768C8.21975 43.0549 8.63422 43.0528 9.03644 42.9707C9.43867 42.8886 9.82077 42.728 10.1609 42.4982C10.5011 42.2683 10.7926 41.9737 11.0188 41.6312C13.5957 37.73 17.178 34.5968 21.3876 32.5624C22.1339 32.2019 22.7065 31.5596 22.9793 30.777C23.2521 29.9943 23.2028 29.1353 22.8423 28.389C22.4817 27.6426 21.8395 27.0701 21.0568 26.7973C20.2742 26.5245 19.4152 26.5737 18.6688 26.9343ZM0.531338 54.453C0.200088 58.5405 2.22509 75.2437 8.58446 72.3812C8.94574 72.186 9.26501 71.9215 9.52402 71.6028C9.78302 71.2842 9.97668 70.9176 10.0939 70.5241C10.2112 70.1305 10.2497 69.7177 10.2073 69.3093C10.165 68.9008 10.0425 68.5047 9.84696 68.1437C7.81538 64.3778 6.75121 60.1663 6.75009 55.8874C7.74696 51.1374 1.25009 49.5687 0.531338 54.453ZM143.497 142.466C143.006 142.494 142.5 142.494 141.997 142.5H128.044C127.215 142.5 126.42 142.829 125.834 143.415C125.248 144.001 124.919 144.796 124.919 145.625C124.919 146.454 125.248 147.249 125.834 147.835C126.42 148.421 127.215 148.75 128.044 148.75C129.231 148.737 143.075 148.797 143.841 148.703C144.65 148.633 145.4 148.251 145.932 147.638C146.464 147.025 146.737 146.228 146.692 145.418C146.647 144.607 146.289 143.845 145.692 143.294C145.096 142.743 144.309 142.446 143.497 142.466ZM45.1563 84.8749C45.1563 85.7037 45.4856 86.4986 46.0716 87.0846C46.6577 87.6707 47.4525 87.9999 48.2813 87.9999H63.9063C64.7351 87.9999 65.53 87.6707 66.116 87.0846C66.7021 86.4986 67.0313 85.7037 67.0313 84.8749C67.0313 84.0461 66.7021 83.2512 66.116 82.6652C65.53 82.0791 64.7351 81.7499 63.9063 81.7499H48.2813C47.4525 81.7499 46.6577 82.0791 46.0716 82.6652C45.4856 83.2512 45.1563 84.0461 45.1563 84.8749ZM82.0938 23.7499H66.4688C65.64 23.7499 64.8452 24.0791 64.2591 24.6652C63.6731 25.2512 63.3438 26.0461 63.3438 26.8749C63.3438 27.7037 63.6731 28.4986 64.2591 29.0846C64.8452 29.6707 65.64 29.9999 66.4688 29.9999H82.0938C82.9226 29.9999 83.7175 29.6707 84.3035 29.0846C84.8896 28.4986 85.2188 27.7037 85.2188 26.8749C85.2188 26.0461 84.8896 25.2512 84.3035 24.6652C83.7175 24.0791 82.9226 23.7499 82.0938 23.7499ZM76.4063 84.8749C76.4063 85.7037 76.7356 86.4986 77.3216 87.0846C77.9077 87.6707 78.7025 87.9999 79.5313 87.9999H95.1563C95.9851 87.9999 96.78 87.6707 97.366 87.0846C97.9521 86.4986 98.2813 85.7037 98.2813 84.8749C98.2813 84.0461 97.9521 83.2512 97.366 82.6652C96.78 82.0791 95.9851 81.7499 95.1563 81.7499H79.5313C78.7025 81.7499 77.9077 82.0791 77.3216 82.6652C76.7356 83.2512 76.4063 84.0461 76.4063 84.8749ZM50.8438 23.7499H35.2188C34.39 23.7499 33.5952 24.0791 33.0091 24.6652C32.4231 25.2512 32.0938 26.0461 32.0938 26.8749C32.0938 27.7037 32.4231 28.4986 33.0091 29.0846C33.5952 29.6707 34.39 29.9999 35.2188 29.9999H50.8438C51.6726 29.9999 52.4675 29.6707 53.0535 29.0846C53.6396 28.4986 53.9688 27.7037 53.9688 26.8749C53.9688 26.0461 53.6396 25.2512 53.0535 24.6652C52.4675 24.0791 51.6726 23.7499 50.8438 23.7499Z" fill="#91824C"/>
</svg>
