<svg width="212" height="212" viewBox="0 0 212 212" fill="none" xmlns="http://www.w3.org/2000/svg">
<path d="M77.3892 80.3797L108.542 92.7796C109.099 93.0009 109.72 92.9922 110.27 92.7555C110.819 92.5188 111.253 92.0733 111.474 91.5172L120.008 70.077C120.229 69.5209 120.221 68.8996 119.984 68.3498C119.747 67.8001 119.302 67.3668 118.746 67.1455L87.5925 54.7456C87.0364 54.5243 86.4151 54.533 85.8653 54.7697C85.3155 55.0065 84.8823 55.4519 84.661 56.008L76.1271 77.4482C76.0175 77.7235 75.9632 78.0178 75.9673 78.3141C75.9713 78.6105 76.0338 78.9031 76.151 79.1754C76.2682 79.4476 76.4378 79.6941 76.6503 79.9007C76.8627 80.1074 77.1138 80.2701 77.3892 80.3797Z" fill="#FF7800"/>
<path d="M79.6041 66.4132C79.6452 66.3093 79.7063 66.2145 79.7841 66.1343C79.8619 66.0541 79.9548 65.9901 80.0575 65.946C80.1601 65.9019 80.2705 65.8785 80.3822 65.8772C80.4939 65.8758 80.6048 65.8966 80.7084 65.9384L97.5919 72.6586L102.379 60.6308C102.42 60.5268 102.481 60.432 102.559 60.3518C102.637 60.2715 102.73 60.2075 102.833 60.1634C102.935 60.1192 103.046 60.0958 103.157 60.0946C103.269 60.0933 103.38 60.1142 103.484 60.156C103.587 60.1972 103.682 60.2585 103.762 60.3363C103.842 60.4142 103.906 60.5071 103.95 60.6096C103.994 60.7122 104.018 60.8225 104.019 60.9341C104.021 61.0458 104 61.1566 103.958 61.2603L99.1714 73.2875L116.055 80.0077C116.159 80.049 116.253 80.1103 116.333 80.1881C116.413 80.266 116.477 80.3588 116.521 80.4614C116.565 80.5639 116.589 80.6742 116.59 80.7858C116.592 80.8975 116.571 81.0083 116.53 81.112C116.489 81.2158 116.428 81.3104 116.35 81.3904C116.272 81.4705 116.179 81.5344 116.076 81.5785C115.974 81.6227 115.864 81.6462 115.752 81.6476C115.64 81.6491 115.529 81.6285 115.426 81.5871L98.5428 74.8672L93.7554 86.8947C93.7142 86.9985 93.6529 87.0931 93.5751 87.1731C93.4972 87.2532 93.4044 87.3171 93.3018 87.3612C93.1992 87.4054 93.089 87.4288 92.9773 87.4303C92.8657 87.4318 92.7548 87.4112 92.6511 87.3698C92.5474 87.3286 92.4528 87.2673 92.3727 87.1895C92.2927 87.1116 92.2288 87.0187 92.1847 86.9162C92.1405 86.8136 92.1171 86.7033 92.1157 86.5917C92.1143 86.48 92.1348 86.3692 92.1763 86.2655L96.9634 74.2387L80.079 67.5181C79.8695 67.4345 79.7018 67.2712 79.6128 67.064C79.5237 66.8568 79.5206 66.6227 79.6041 66.4132ZM120.335 50.9023V89.3679C120.335 91.3417 121.933 92.9401 123.907 92.9401H173.186C175.159 92.9401 176.758 91.3417 176.758 89.3679V50.9023C176.758 50.799 176.738 50.6966 176.699 50.601C176.66 50.5054 176.602 50.4186 176.529 50.3455C176.456 50.2724 176.369 50.2146 176.273 50.1752C176.178 50.1359 176.075 50.1159 175.972 50.1163H121.112C120.684 50.1163 120.335 50.4657 120.335 50.9023Z" fill="#FF8CD0"/>
<path d="M148.547 78.9801L154.332 82.0216C154.696 82.2129 155.121 81.9039 155.052 81.4986L153.947 75.0566L158.627 70.4944C158.921 70.2074 158.759 69.7075 158.352 69.6485L151.884 68.7087L148.992 62.8478C148.81 62.4792 148.284 62.4792 148.102 62.8478L145.21 68.7087L138.741 69.6485C138.335 69.7075 138.172 70.2074 138.467 70.4944L143.147 75.0566L142.042 81.4986C141.972 81.9039 142.398 82.2129 142.761 82.0216L148.547 78.9801ZM79.1413 48.0055C79.172 48.2934 79.2379 48.5943 79.3155 48.8896C80.0624 51.6548 82.2471 53.6326 84.8473 54.2556C84.8342 54.2904 112.41 64.7263 112.41 64.7263C113.542 65.1576 114.812 64.5844 115.235 63.4487L115.899 61.6926L117.374 57.8107L120.393 49.8418L120.605 47.1332L122.061 45.4379L123.73 41.0322C123.904 40.5632 123.885 40.0443 123.677 39.5893C123.469 39.1344 123.089 38.7806 122.62 38.6056L120.43 37.801L117.916 37.7242L115.987 36.1681L108.054 33.253L104.966 33.7601L103.357 31.5276L96.4123 28.9755C95.4416 28.614 94.9509 29.0966 94.5928 30.0587L93.5649 31.2493L91.0877 37.7895L90.1666 40.2099C88.5257 39.3422 86.5658 39.0664 84.637 39.5819C83.7035 39.8363 82.8635 40.2636 82.1191 40.8055C79.9024 42.4368 78.7062 45.1988 79.1413 48.0055Z" fill="#FFE435"/>
<path d="M120.4 49.844L120.825 48.713L122.066 45.4395C121.49 45.2994 120.882 45.3818 120.363 45.6702C119.845 45.9587 119.454 46.4319 119.269 46.9956C119.09 47.5274 119.106 48.1054 119.313 48.6268C119.52 49.1483 119.905 49.5795 120.4 49.844ZM106.821 42.8368C106.722 43.1336 106.682 43.447 106.704 43.7592C106.726 44.0713 106.809 44.3761 106.949 44.656C107.089 44.936 107.282 45.1857 107.519 45.3908C107.755 45.596 108.029 45.7526 108.326 45.8517C108.623 45.9508 108.936 45.9905 109.248 45.9685C109.561 45.9465 109.865 45.8632 110.145 45.7235C110.425 45.5837 110.675 45.3901 110.88 45.1538C111.085 44.9175 111.242 44.6432 111.341 44.3463C111.541 43.7469 111.495 43.0925 111.213 42.5271C110.93 41.9617 110.435 41.5316 109.836 41.3314C109.236 41.1312 108.582 41.1774 108.016 41.4597C107.451 41.742 107.021 42.2374 106.821 42.8368ZM117.373 39.4621C118.623 39.8788 119.975 39.2071 120.391 37.9572C120.409 37.9044 120.423 37.8504 120.434 37.7957L115.987 36.1715C115.944 36.2566 115.902 36.3585 115.868 36.4522C115.451 37.7022 116.132 39.0456 117.373 39.4621ZM110.216 53.3811C110.117 53.6779 110.077 53.9912 110.099 54.3034C110.121 54.6155 110.204 54.9202 110.344 55.2002C110.484 55.4801 110.677 55.7298 110.914 55.935C111.15 56.1401 111.424 56.2967 111.721 56.3959C112.018 56.495 112.331 56.5347 112.643 56.5128C112.955 56.4908 113.26 56.4076 113.54 56.2678C113.82 56.1281 114.07 55.9346 114.275 55.6983C114.48 55.4621 114.636 55.1877 114.736 54.891C114.835 54.5942 114.874 54.2808 114.853 53.9687C114.831 53.6566 114.747 53.3518 114.608 53.0719C114.468 52.792 114.274 52.5423 114.038 52.3371C113.802 52.1319 113.527 51.9753 113.231 51.8762C112.934 51.777 112.621 51.7373 112.308 51.7593C111.996 51.7813 111.692 51.8645 111.412 52.0043C111.132 52.144 110.882 52.3375 110.677 52.5738C110.472 52.81 110.315 53.0843 110.216 53.3811ZM94.3737 38.6789C94.1735 39.2782 94.2195 39.9326 94.5018 40.4979C94.784 41.0633 95.2793 41.4934 95.8786 41.6937C96.478 41.8939 97.1323 41.8478 97.6977 41.5656C98.2631 41.2834 98.6932 40.7881 98.8934 40.1887C99.0936 39.5894 99.0476 38.9351 98.7653 38.3697C98.4831 37.8043 97.9878 37.3742 97.3885 37.174C96.7891 36.9737 96.1348 37.0198 95.5694 37.302C95.004 37.5843 94.5739 38.0795 94.3737 38.6789ZM104.934 35.3045C106.175 35.7212 107.527 35.0492 107.944 33.7996C108.003 33.621 108.046 33.4424 108.054 33.2555L103.743 31.6739C103.607 31.8608 103.505 32.0652 103.429 32.2946C103.329 32.5911 103.289 32.9042 103.311 33.2161C103.333 33.5279 103.416 33.8324 103.556 34.1121C103.696 34.3917 103.89 34.641 104.126 34.8456C104.362 35.0502 104.637 35.2062 104.934 35.3045ZM93.5653 31.2487C94.0047 31.1869 94.4181 31.0037 94.759 30.7198C95.1 30.4359 95.355 30.0625 95.4954 29.6416C95.5788 29.3922 95.6218 29.1311 95.6227 28.8681C95.2661 28.8934 94.9242 29.0206 94.6378 29.2347C94.3514 29.4487 94.1325 29.7406 94.0073 30.0755L93.5653 31.2487ZM97.7692 49.2232C97.6701 49.5199 97.6304 49.8333 97.6523 50.1455C97.6743 50.4576 97.7575 50.7623 97.8973 51.0423C98.037 51.3222 98.2306 51.5719 98.4668 51.777C98.703 51.9822 98.9774 52.1388 99.2741 52.238C99.5709 52.3371 99.8843 52.3768 100.196 52.3549C100.509 52.3329 100.813 52.2496 101.093 52.1099C101.373 51.9702 101.623 51.7766 101.828 51.5404C102.033 51.3042 102.19 51.0298 102.289 50.7331C102.489 50.1337 102.443 49.4794 102.161 48.914C101.879 48.3486 101.383 47.9185 100.784 47.7183C100.185 47.518 99.5303 47.5641 98.9649 47.8463C98.3996 48.1286 97.9694 48.6238 97.7692 49.2232ZM85.3225 45.065C85.2234 45.3617 85.1836 45.6751 85.2056 45.9872C85.2276 46.2993 85.3108 46.6041 85.4506 46.884C85.5903 47.164 85.7838 47.4137 86.0201 47.6188C86.2563 47.824 86.5306 47.9806 86.8274 48.0797C87.1242 48.1789 87.4376 48.2186 87.7497 48.1966C88.0618 48.1747 88.3665 48.0914 88.6465 47.9517C88.9264 47.8119 89.1761 47.6184 89.3813 47.3822C89.5864 47.1459 89.7431 46.8716 89.8422 46.5748C89.9413 46.2781 89.9811 45.9647 89.9591 45.6526C89.9371 45.3404 89.8539 45.0357 89.7141 44.7558C89.5744 44.4758 89.3809 44.2261 89.1446 44.021C88.9084 43.8158 88.6341 43.6592 88.3373 43.56C88.0405 43.4609 87.7271 43.4212 87.415 43.4432C87.1029 43.4651 86.7982 43.5484 86.5182 43.6881C86.2383 43.8279 85.9886 44.0214 85.7834 44.2576C85.5783 44.4939 85.4216 44.7682 85.3225 45.065Z" fill="#FF8CD0"/>
<path d="M79.1412 48.0055C79.1719 48.2934 79.2378 48.5943 79.3154 48.8897C80.0623 51.6548 82.247 53.6326 84.8472 54.2556C84.8341 54.2904 112.41 64.7263 112.41 64.7263C113.542 65.1577 114.812 64.5844 115.234 63.4487L115.898 61.6926L79.1412 48.0055ZM97.6439 40.9468C97.8174 40.9468 97.9867 40.8937 98.1292 40.7948C98.2716 40.6958 98.3805 40.5557 98.441 40.3931C98.5195 40.1817 98.5109 39.9478 98.417 39.7428C98.3231 39.5378 98.1517 39.3784 97.9404 39.2997L91.4413 36.8793C91.2299 36.8016 90.9963 36.8106 90.7915 36.9044C90.5867 36.9981 90.4272 37.169 90.3479 37.3799C90.2694 37.5913 90.2781 37.8252 90.3719 38.0302C90.4658 38.2352 90.6372 38.3946 90.8485 38.4733L97.3476 40.8937C97.4425 40.9287 97.5428 40.9467 97.6439 40.9468ZM99.2506 36.6314C99.4241 36.6314 99.5934 36.5784 99.7359 36.4794C99.8784 36.3804 99.9872 36.2403 100.048 36.0777C100.126 35.8664 100.118 35.6325 100.024 35.4274C99.9299 35.2224 99.7585 35.063 99.5472 34.9843L93.0481 32.5639C92.8366 32.4865 92.6032 32.4956 92.3984 32.5893C92.1937 32.6831 92.0342 32.8538 91.9547 33.0645C91.8762 33.2759 91.8848 33.5098 91.9787 33.7148C92.0726 33.9198 92.244 34.0792 92.4553 34.1579L98.9544 36.5783C99.0492 36.6133 99.1495 36.6313 99.2506 36.6314Z" fill="#9264FF"/>
<path d="M181.101 81.1463L36.6388 99.1531C36.3469 93.1102 35.0716 77.4347 29.8246 77.4752C22.6282 77.532 20.0295 93.663 19.2084 101.33C18.9492 103.726 18.8594 105.294 18.8594 105.294L47.2873 101.501L94.8022 202.151L177.397 171.295V167.835H88.5076L181.101 131.082V81.1463ZM166.635 171.295L97.848 196.433L85.8679 171.295H166.635Z" fill="#F1BF5D"/>
<path d="M173.134 87.5858L55.0234 100.635L81.841 162.936L81.9926 163.289L177.836 128.308L173.134 87.5858ZM135.008 117.607L122.492 121.028L118.939 108.228L131.907 105.812L135.008 117.607ZM132.707 105.663L147.611 102.886L149.83 113.555L135.792 117.392L132.707 105.663ZM121.709 121.242L102.218 126.57L97.9303 112.141L118.138 108.377L121.709 121.242ZM121.926 122.025L125.12 133.533L106.132 139.739L102.45 127.349L121.926 122.025ZM122.709 121.811L135.215 118.392L138.083 129.297L125.893 133.28L122.709 121.811ZM135.998 118.178L149.996 114.352L152.148 124.7L138.855 129.044L135.998 118.178ZM150.78 114.137L161.855 111.11L163.279 121.063L152.925 124.446L150.78 114.137ZM162.645 110.894L174.63 107.618L175.713 117L164.063 120.807L162.645 110.894ZM162.529 110.083L161.14 100.367L173.525 98.0595L174.535 106.802L162.529 110.083ZM161.739 110.3L150.615 113.34L148.41 102.738L160.34 100.515L161.739 110.3ZM148.244 101.942L146.051 91.3956L158.834 89.9832L160.225 99.7104L148.244 101.942ZM147.446 102.091L132.5 104.875L129.439 93.2311L145.241 91.4854L147.446 102.091ZM131.7 105.024L118.721 107.442L115.213 94.8029L128.623 93.3214L131.7 105.024ZM117.92 107.591L97.6976 111.358L93.5681 97.4641L92.7893 97.6955L96.8939 111.508L77.5828 115.105L70.0253 99.7952L114.395 94.8923L117.92 107.591ZM97.1274 112.291L101.434 126.785L85.5001 131.141L77.9575 115.862L97.1274 112.291ZM84.7022 131.358L70.7723 135.167L63.6132 118.534L77.1282 116.017L84.7022 131.358ZM85.0686 132.101L91.2415 144.605L76.8578 149.305L71.0969 135.92L85.0686 132.101ZM85.8657 131.883L101.666 127.564L105.359 139.991L92.0208 144.35L85.8657 131.883ZM105.591 140.77L109.087 152.535L98.0507 156.563L92.3843 145.085L105.591 140.77ZM106.363 140.517L125.338 134.316L128.435 145.474L109.852 152.256L106.363 140.517ZM126.111 134.063L138.289 130.083L141.119 140.844L129.2 145.194L126.111 134.063ZM139.062 129.831L152.314 125.501L154.443 135.735L155.238 135.569L153.092 125.247L163.396 121.879L164.868 132.177L141.885 140.565L139.062 129.831ZM164.179 121.623L175.808 117.823L176.956 127.764L165.649 131.891L164.179 121.623ZM173.432 97.25L161.025 99.5613L159.642 89.8938L172.42 88.4818L173.432 97.25ZM69.167 99.8901L76.7547 115.26L63.284 117.769L56.2039 101.322L69.167 99.8901ZM77.1803 150.054L91.6042 145.34L97.2827 156.844L82.4352 162.262L77.1803 150.054Z" fill="#FFF0BA"/>
<path d="M105.767 205.048C105.767 208.887 100.811 212 94.6962 212C88.5826 212 83.625 208.887 83.625 205.048C83.625 201.209 88.5826 198.096 94.6962 198.096C100.811 198.096 105.767 201.208 105.767 205.048ZM193.141 170.919C193.141 174.758 188.184 177.871 182.07 177.871C175.956 177.871 170.999 174.758 170.999 170.919C170.999 167.079 175.956 163.967 182.07 163.967C188.185 163.967 193.141 167.079 193.141 170.919Z" fill="#00304C"/>
<path d="M94.694 207.61C97.1052 207.61 99.0599 206.463 99.0599 205.048C99.0599 203.634 97.1052 202.487 94.694 202.487C92.2828 202.487 90.3281 203.634 90.3281 205.048C90.3281 206.463 92.2828 207.61 94.694 207.61Z" fill="#FFB50D"/>
<path d="M181.1 173.48C183.511 173.48 185.466 172.333 185.466 170.919C185.466 169.504 183.511 168.357 181.1 168.357C178.689 168.357 176.734 169.504 176.734 170.919C176.734 172.333 178.689 173.48 181.1 173.48Z" fill="#FFB50D"/>
<path d="M126.887 46.3162L168.322 58.709C169.862 59.1698 171.485 58.2945 171.946 56.7539L173.242 52.4208L172.919 51.4248L173.729 50.7915L178.721 34.1001L178.48 33.1428L179.208 32.4708L180.475 28.2373C180.935 26.6971 180.06 25.0747 178.52 24.6139L176.902 24.1302L175.817 24.4685L175.273 23.6427L167.738 21.389L166.691 21.6782L166.109 20.9018L149.417 15.9095L148.42 16.1755L147.788 15.4224L140.253 13.1686L139.204 13.3866L138.624 12.6814L137.085 12.2209C135.544 11.7601 133.922 12.6354 133.461 14.176L126.684 36.8358L127.11 37.8358L126.197 38.465L124.932 42.6929C124.822 43.0591 124.786 43.4434 124.825 43.8237C124.864 44.204 124.977 44.573 125.159 44.9095C125.34 45.2459 125.586 45.5434 125.883 45.7847C126.179 46.0261 126.52 46.2067 126.887 46.3162Z" fill="#F96024"/>
<path d="M126.685 36.8367L131.07 38.1377L133.307 30.5975L131.341 29.132L128.938 29.3014L129.421 27.671L131.46 28.8714L133.791 28.9671L136.025 21.435L131.672 20.1437L132.164 18.5157L136.508 19.8046L138.622 12.6801L140.25 13.1717L138.139 20.2882L145.679 22.5251L147.785 15.4253L149.416 15.909L147.31 23.0091L154.85 25.2458L156.951 18.1618L158.579 18.6535L156.48 25.7292L164.012 27.9635L166.106 20.9042L167.737 21.3878L165.643 28.4472L173.183 30.6839L175.272 23.641L176.9 24.1326L174.813 31.1676L179.207 32.471L178.715 34.0989L174.329 32.7979L172.095 40.33L176.464 41.6262L175.981 43.2565L171.611 41.9603L169.375 49.5005L173.728 50.7918L173.236 52.4197L168.891 51.1309L166.778 58.2554L165.15 57.7637L167.261 50.6476L159.721 48.4108L157.615 55.5109L155.987 55.0192L158.09 47.9275L150.558 45.6931L148.459 52.7685L146.829 52.2849L148.928 45.2095L141.388 42.9727L139.294 50.032L137.666 49.5403L139.757 42.4894L132.217 40.2526L130.13 47.2875L128.502 46.7958L130.587 39.7693L126.193 38.466L126.685 36.8367ZM160.204 46.7801L167.744 49.0168L169.981 41.4767L162.441 39.2399L160.204 46.7801ZM162.925 37.6096L170.465 39.8464L172.699 32.3143L165.159 30.0775L162.925 37.6096ZM151.042 44.0622L158.574 46.2965L160.811 38.7564L153.279 36.522L151.042 44.0622ZM153.762 34.8917L161.295 37.1261L163.529 29.594L155.997 27.3596L153.762 34.8917ZM141.871 41.3417L149.411 43.5784L151.648 36.0383L144.108 33.8015L141.871 41.3417ZM144.592 32.1712L152.132 34.408L154.366 26.8759L146.826 24.6391L144.592 32.1712ZM132.701 38.6213L140.241 40.8581L142.478 33.3179L134.938 31.0812L132.701 38.6213ZM135.421 29.4508L142.961 31.6876L145.196 24.1555L137.656 21.9187L135.421 29.4508Z" fill="#FFA367"/>
<path d="M129.44 27.62L152.132 34.4068L156.699 19.1384C154.89 17.9467 149.59 14.3485 148.568 12.4525C148.252 11.8717 148.055 11.2341 147.988 10.5767C147.921 9.91924 147.984 9.25499 148.175 8.6223C148.363 7.98851 148.674 7.39823 149.092 6.88561C149.509 6.37298 150.024 5.9482 150.606 5.63584C151.786 4.99914 153.141 4.85927 154.437 5.24372C155.071 5.4313 155.661 5.74274 156.174 6.16001C156.686 6.57727 157.111 7.09206 157.423 7.67458C158.206 9.12516 158.447 13.2112 158.518 16.0232C160.121 13.7122 162.565 10.4286 164.017 9.64601C166.458 8.32801 169.517 9.24405 170.833 11.6856C171.149 12.2666 171.346 12.9043 171.413 13.5619C171.48 14.2195 171.416 14.8839 171.225 15.5167C171.038 16.1506 170.726 16.7409 170.308 17.2536C169.891 17.7662 169.376 18.191 168.793 18.5032C166.898 19.5254 160.495 19.623 158.328 19.6262L153.761 34.8949L176.453 41.6815C176.669 41.7458 176.851 41.8934 176.958 42.0917C177.066 42.29 177.09 42.5228 177.026 42.739C176.961 42.9551 176.814 43.1368 176.615 43.2442C176.417 43.3515 176.184 43.3757 175.968 43.3114L153.274 36.5242L148.419 52.7566C148.387 52.8636 148.335 52.9632 148.264 53.0498C148.194 53.1365 148.107 53.2084 148.009 53.2614C147.91 53.3145 147.803 53.3477 147.691 53.3591C147.58 53.3705 147.468 53.36 147.361 53.328C147.254 53.2961 147.155 53.2433 147.068 53.1729C146.981 53.1024 146.909 53.0156 146.856 52.9173C146.803 52.8191 146.77 52.7114 146.759 52.6003C146.747 52.4892 146.758 52.377 146.79 52.27L151.645 36.037L128.953 29.2504C128.74 29.1826 128.563 29.0342 128.459 28.8371C128.355 28.64 128.333 28.4099 128.396 28.1964C128.46 27.9828 128.605 27.8028 128.8 27.695C128.995 27.5873 129.225 27.5603 129.44 27.62ZM155.927 8.48201C155.719 8.09536 155.437 7.75379 155.096 7.47713C154.756 7.20048 154.364 6.99424 153.942 6.8704C153.092 6.61816 152.195 6.71159 151.414 7.13278C151.028 7.33958 150.687 7.62071 150.411 7.95993C150.135 8.29915 149.929 8.68973 149.804 9.10912C149.678 9.5282 149.636 9.96819 149.68 10.4036C149.725 10.8391 149.856 11.2614 150.064 11.6461C150.681 12.7887 154.135 15.3602 156.841 17.19C156.797 13.924 156.544 9.62449 155.927 8.48201ZM167.987 17.0058C168.372 16.7989 168.713 16.5177 168.989 16.1783C169.266 15.8389 169.472 15.4482 169.596 15.0286C169.723 14.6095 169.765 14.1695 169.72 13.7341C169.676 13.2986 169.545 12.8763 169.336 12.4916C168.914 11.7087 168.212 11.1377 167.352 10.88C166.502 10.6278 165.605 10.7212 164.823 11.1424C163.68 11.7587 161.109 15.213 159.279 17.9188C162.545 17.8754 166.844 17.6221 167.987 17.0058Z" fill="#FFE435"/>
<path d="M65.0717 51.4646C69.5749 52.9163 73.3578 55.7284 75.7209 59.3865C78.1553 63.1507 78.808 67.354 77.56 71.2215L74.6368 80.284C74.7642 86.2583 70.4714 95.8823 66.4347 94.5802C60.9237 92.8024 66.9389 74.1106 72.4632 75.893C72.4777 75.8995 74.3229 70.1779 74.3229 70.1779C75.2519 67.3 74.7338 64.1232 72.8647 61.2327C70.9245 58.2363 67.7887 55.9141 64.0277 54.7012C56.3921 52.2383 48.5869 55.1738 46.6284 61.2434L44.7822 66.9662C50.3336 68.7539 44.292 87.4372 38.781 85.6594C34.7527 84.3598 36.8764 74.0794 40.4581 69.2931L43.3915 60.1996C45.9265 52.3446 55.6521 48.426 65.0717 51.4646Z" fill="#9264FF"/>
<path d="M62.9904 95.4404C64.5749 95.9515 66.2737 95.0814 66.7849 93.4969L72.1141 76.9769C72.6252 75.3924 71.7551 73.6936 70.1706 73.1825C68.5861 72.6713 66.8872 73.5415 66.3761 75.126L61.0469 91.6459C60.5355 93.2302 61.4056 94.9291 62.9904 95.4404ZM41.0749 88.3707C39.4904 87.8596 38.6203 86.1608 39.1314 84.5763L44.4606 68.0563C44.9717 66.4718 46.6706 65.6017 48.2551 66.1128C49.8396 66.6239 50.7097 68.3228 50.1986 69.9073L44.8694 86.4272C44.3585 88.0115 42.6596 88.8816 41.0749 88.3707Z" fill="#FF7800"/>
</svg>
