<svg width="145" height="136" viewBox="0 0 145 136" fill="none" xmlns="http://www.w3.org/2000/svg">
<path d="M53.6268 67.0925C49.9443 61.5687 47.1824 55.3544 45.3411 48.9099C45.111 48.2195 45.5713 47.7591 46.2618 47.529C46.9522 47.2988 47.4125 47.7591 47.6427 48.4496C49.2538 54.6639 51.7856 60.648 55.4681 65.9417C55.9284 66.402 55.6983 67.0925 55.2379 67.5528C54.5475 67.783 53.857 67.5528 53.6268 67.0925ZM91.1427 68.2433C90.4522 68.0131 90.2221 67.3226 90.4522 66.8623C92.5237 60.8782 94.3649 54.4337 95.7459 48.2195C95.976 47.529 96.4364 47.2988 97.1268 47.2988C97.8173 47.529 98.0475 47.9893 98.0475 48.6798C96.4364 55.1242 94.5951 61.3385 92.5237 67.5528C92.2935 68.0131 91.603 68.4734 91.1427 68.2433Z" fill="#373737"/>
<path d="M42.5791 47.5273C44.6505 50.059 49.0236 48.6781 49.0236 46.1463C49.0236 43.8447 46.0315 41.7733 43.9601 42.2336C41.6585 42.4638 41.4283 45.9161 42.5791 47.5273ZM94.595 46.8368C96.6664 49.3685 101.039 47.9876 101.039 45.4558C101.039 43.1542 98.0474 41.0828 95.9759 41.5431C93.6744 41.7733 93.4442 45.2257 94.595 46.8368Z" fill="#373737"/>
<path d="M32.4526 85.2736L31.9923 109.21C22.0955 108.289 16.1114 99.7736 18.8733 91.718C20.9447 85.0434 27.6193 82.7418 32.4526 85.2736Z" fill="#FC7A7A"/>
<path d="M32.4523 85.2745L31.992 109.211C30.3809 108.981 28.7698 108.751 27.1587 108.06V102.076C27.619 97.703 28.0793 88.0364 30.3809 84.584C31.0714 84.584 31.7619 84.8141 32.4523 85.2745Z" fill="#373737"/>
<path d="M112.548 109.441L115.31 85.7347C120.143 83.6633 126.818 87.3458 127.968 94.0205C129.58 102.306 121.984 109.901 112.548 109.441Z" fill="#FC7A7A"/>
<path d="M120.373 107.829C118.072 108.98 115.31 109.44 112.548 109.44L115.31 85.7341C115.54 85.7341 115.77 85.5039 116 85.5039C116 85.7341 117.381 88.7261 118.532 91.9483C120.143 97.242 120.603 102.305 120.373 107.829Z" fill="#373737"/>
<path d="M115.54 77.4482V120.258C115.54 127.853 109.326 134.067 101.73 134.067H45.1113C37.516 134.067 31.3018 127.853 31.3018 120.258V77.4482C31.3018 69.853 37.516 63.6387 45.1113 63.6387C63.524 61.107 82.397 61.3371 101.73 63.6387C109.326 63.6387 115.54 69.853 115.54 77.4482Z" fill="#FFC93D"/>
<path d="M55.9283 73.5359C49.9442 74.9169 43.9601 78.1391 41.1982 83.8931C35.4442 95.401 38.8966 114.965 48.7934 122.56C55.2379 127.393 63.9839 127.853 72.0394 127.623C80.7855 127.623 91.1426 127.393 98.968 123.02C106.793 118.647 111.166 109.441 110.706 100.464C110.476 92.8693 107.484 84.3534 101.73 79.2899C95.5156 73.9962 88.841 72.6153 81.2458 71.9248C72.7299 71.2343 64.214 71.9248 55.9283 73.5359Z" fill="#FC6060"/>
<path d="M55.4683 103.227C61.4427 103.227 66.2858 98.3836 66.2858 92.4093C66.2858 86.4349 61.4427 81.5918 55.4683 81.5918C49.494 81.5918 44.6509 86.4349 44.6509 92.4093C44.6509 98.3836 49.494 103.227 55.4683 103.227Z" fill="white"/>
<path d="M91.8331 103.455C97.8074 103.455 102.651 98.6121 102.651 92.6378C102.651 86.6635 97.8074 81.8203 91.8331 81.8203C85.8588 81.8203 81.0156 86.6635 81.0156 92.6378C81.0156 98.6121 85.8588 103.455 91.8331 103.455Z" fill="white"/>
<path d="M92.2933 115.884C90.9123 121.868 89.9917 128.083 89.5314 134.297H56.8489C56.6187 128.773 56.1584 123.249 55.4679 117.956C55.2377 116.805 56.1584 115.884 57.079 115.884L90.452 113.813C91.6028 113.583 92.5234 114.733 92.2933 115.884Z" fill="#D1DDF5"/>
<path d="M92.0638 93.7896C94.7332 93.7896 96.8971 93.0683 96.8971 92.1785C96.8971 91.2887 94.7332 90.5674 92.0638 90.5674C89.3944 90.5674 87.2305 91.2887 87.2305 92.1785C87.2305 93.0683 89.3944 93.7896 92.0638 93.7896Z" fill="#373737"/>
<path d="M55.4681 93.0998C58.1375 93.0998 60.3014 92.4815 60.3014 91.7188C60.3014 90.9562 58.1375 90.3379 55.4681 90.3379C52.7987 90.3379 50.6348 90.9562 50.6348 91.7188C50.6348 92.4815 52.7987 93.0998 55.4681 93.0998Z" fill="#373737"/>
<path d="M42.1188 75.6074C44.8807 73.0756 40.968 68.4725 38.2061 71.0042C35.4442 73.536 39.1267 78.3693 42.1188 75.6074ZM42.1188 128.314C44.8807 125.782 40.968 121.179 38.2061 123.711C35.4442 126.012 39.1267 130.845 42.1188 128.314ZM107.944 129.695C110.706 127.163 106.793 122.56 104.031 125.092C101.27 127.623 104.952 132.457 107.944 129.695ZM105.873 73.3058C108.635 70.7741 104.722 66.1709 101.96 68.7026C99.1981 71.2344 103.111 75.8376 105.873 73.3058Z" fill="white"/>
<path d="M58.9209 121.41C59.9378 121.41 60.7621 120.586 60.7621 119.569C60.7621 118.552 59.9378 117.728 58.9209 117.728C57.904 117.728 57.0796 118.552 57.0796 119.569C57.0796 120.586 57.904 121.41 58.9209 121.41Z" fill="#373737"/>
<path d="M89.3017 118.877C90.3186 118.877 91.143 118.053 91.143 117.036C91.143 116.019 90.3186 115.194 89.3017 115.194C88.2848 115.194 87.4604 116.019 87.4604 117.036C87.4604 118.053 88.2848 118.877 89.3017 118.877Z" fill="#373737"/>
<path d="M130.5 97.472C128.198 96.3212 129.119 93.099 125.667 96.0911C125.206 96.5514 124.516 96.3212 124.055 95.8609C123.595 95.4006 123.825 94.7101 124.286 94.2498C124.976 93.7895 125.667 93.099 126.357 92.8688C127.508 92.4085 128.659 92.4085 129.579 93.099C130.27 93.5593 130.73 94.2498 130.96 94.7101C131.19 95.1704 131.421 95.4006 131.651 95.6308V95.4006C131.651 94.9403 131.881 93.7895 133.032 93.5593C133.952 93.099 134.413 93.5593 138.786 95.6308C139.246 95.8609 139.706 96.5514 139.246 97.2419C139.016 97.7022 138.325 98.1625 137.635 97.7022L133.952 95.8609C133.952 96.3212 133.722 96.7815 133.492 97.2419C132.801 97.9323 131.651 97.9323 130.5 97.472ZM12.8888 93.7895C12.1983 94.48 11.2777 95.1704 10.357 95.6308C7.13481 96.7815 4.37291 94.2498 5.98402 92.8688C6.44434 92.4085 7.13481 92.6387 7.59513 93.099C8.05545 93.5593 8.97608 93.5593 9.66656 93.3292C10.1269 93.099 10.5872 93.099 12.1983 91.4879C14.4999 89.4165 16.5713 91.4879 15.6507 93.5593C15.6507 93.7895 15.4205 94.0196 15.4205 94.0196H15.8808C17.0316 94.2498 18.4126 94.2498 19.3332 93.5593C19.7935 93.3292 20.484 93.3292 20.9443 94.0196C22.3253 97.0117 12.1983 98.3927 12.8888 93.7895Z" fill="#373737"/>
<path d="M75.2618 56.7344C72.9602 51.6709 70.8888 46.6074 69.2777 41.5439L65.1348 50.2899C64.6745 51.2106 63.5237 51.2106 63.0634 50.2899L59.3809 42.2344C59.3809 42.2344 54.3174 46.8376 54.0872 47.0677C53.6269 47.528 52.9364 47.528 52.4761 47.0677C52.0158 46.6074 52.0158 45.9169 52.4761 45.4566L57.5396 40.8534C58.9205 39.4725 60.5317 39.9328 61.2221 41.5439L63.7539 47.2979L68.1269 38.0915C68.357 37.6312 68.8174 37.4011 69.2777 37.4011C70.8888 37.6312 69.738 39.7026 74.8015 51.4407C75.0317 46.8376 75.7221 42.2344 77.5634 37.8614C77.7936 37.4011 78.2539 37.1709 78.9444 37.1709C80.7856 37.6312 78.9444 39.7026 81.2459 46.8376C81.7063 45.2265 82.3967 43.8455 83.3174 42.2344C83.7777 41.5439 84.6983 41.3138 85.1586 42.0042C85.619 42.6947 86.9999 43.155 88.1507 42.9249C88.8412 42.6947 89.3015 43.155 89.5317 43.8455C89.992 45.6868 86.5396 45.6868 84.6983 44.536C82.1666 49.5995 83.0872 51.2106 81.7063 51.4407C81.2459 51.4407 80.7856 51.2106 80.5555 50.7503C79.4047 48.4487 78.7142 46.1471 78.2539 43.8455C77.3332 47.9884 77.3332 52.3614 77.1031 56.5042C77.1031 56.9646 76.6428 57.4249 76.1824 57.655C75.9523 57.4249 75.492 57.1947 75.2618 56.7344Z" fill="#FF7800"/>
<path d="M36.3651 132.687C33.373 130.616 31.0714 127.163 30.1508 122.79C29 117.957 29.4603 116.576 30.8412 73.3061C30.8412 72.6156 31.3016 72.1553 31.992 72.1553C32.6825 72.1553 33.1428 72.6156 33.1428 73.3061C31.7619 116.806 31.3016 117.727 32.4524 122.1C33.373 125.782 35.2143 128.774 37.746 130.616C44.1905 134.989 51.0952 130.846 98.7381 132.687C99.4286 132.687 99.8889 133.147 99.8889 133.838C99.8889 134.528 99.4286 134.989 98.7381 134.989C50.4047 133.147 43.7301 137.52 36.3651 132.687Z" fill="#373737"/>
<path d="M141.317 99.7743C143.351 99.7743 145 98.1255 145 96.0917C145 94.0579 143.351 92.4092 141.317 92.4092C139.283 92.4092 137.635 94.0579 137.635 96.0917C137.635 98.1255 139.283 99.7743 141.317 99.7743Z" fill="#373737"/>
<path d="M3.68254 97.0106C5.71635 97.0106 7.36508 95.3619 7.36508 93.3281C7.36508 91.2942 5.71635 89.6455 3.68254 89.6455C1.64873 89.6455 0 91.2942 0 93.3281C0 95.3619 1.64873 97.0106 3.68254 97.0106Z" fill="#373737"/>
<path d="M32.4527 36.9405C31.7622 37.8611 30.3813 37.8611 29.9209 36.9405C27.8495 33.4881 20.2543 20.369 17.9527 16.4564C17.2622 15.3056 18.1828 14.1548 19.3336 14.1548C21.6352 12.7738 23.7067 11.3929 26.4686 10.0119C27.159 9.55159 28.0797 10.0119 28.54 10.7024C29.0003 11.3929 28.54 12.3135 27.8495 12.7738C25.3178 14.1548 23.4765 15.3056 21.4051 16.4564C23.7067 20.5992 25.7781 23.8214 27.6193 27.0437C29.2305 26.123 30.6114 25.2024 31.9924 24.5119C32.6828 24.0516 33.6035 24.2817 34.0638 25.2024C34.5241 25.8929 34.294 26.8135 33.6035 27.2738C33.3733 27.504 31.9924 28.1944 29.4606 29.8056C30.3813 31.4167 31.3019 33.0278 31.9924 34.1786C34.0638 32.7976 36.1352 31.6468 38.667 30.2659C39.3574 29.8056 40.2781 30.2659 40.7384 30.9564C41.1987 31.6468 40.9686 32.5675 40.0479 33.0278C39.5876 32.7976 37.5162 33.7183 32.4527 36.9405ZM53.3971 17.8373C53.3971 20.8294 52.2463 23.8214 49.7146 25.4325C51.0955 25.8929 52.4765 26.123 53.6273 26.123C54.5479 26.123 55.2384 26.8135 55.2384 27.7341C55.2384 28.6548 54.5479 29.3452 53.6273 29.3452C50.6352 29.3452 47.8733 28.6548 45.5717 27.0437C45.8019 27.7341 46.032 28.6548 46.032 29.3452C46.2622 30.2659 45.8019 30.9564 44.8813 31.1865C43.9606 31.4167 43.2701 30.9564 43.04 30.0357C41.1987 22.4405 39.3574 14.8452 37.5162 6.55952C37.0559 4.71825 40.0479 3.56746 40.5082 6.32937C42.5797 3.56746 46.032 3.10714 48.3336 4.94841C51.3257 7.25 53.3971 13.9246 53.3971 17.8373ZM46.4924 7.48016C44.4209 5.86905 41.4289 8.40079 41.8892 11.623C42.5797 14.6151 43.2701 17.8373 44.1908 20.8294C45.8019 24.5119 50.1749 23.3611 50.4051 17.6071C50.4051 14.6151 48.5638 9.09127 46.4924 7.48016ZM72.5003 16.6865C71.8098 19.4484 69.9686 22.2103 67.2066 23.131C68.3574 23.8214 69.7384 24.2817 70.8892 24.7421C71.8098 24.9722 72.2701 25.8929 72.04 26.5833C71.8098 27.2738 71.1193 27.7341 70.659 27.7341C69.7384 27.7341 65.8257 26.3532 63.0638 23.5913V25.8929C63.0638 26.8135 62.3733 27.2738 61.4527 27.2738C60.532 27.2738 59.8416 26.5833 60.0717 25.6627C59.8416 16.9167 59.8416 10.0119 60.0717 1.49603C60.0717 -0.345238 63.2939 -0.805556 63.0638 1.95635C63.9844 1.26587 65.1352 0.805555 66.286 0.805555C72.9606 0.345238 74.1114 10.9325 72.5003 16.6865ZM66.5162 3.79762C64.9051 4.02778 63.2939 5.40873 63.0638 7.71032C63.0638 10.9325 63.0638 13.6944 62.8336 17.377C63.5241 21.5198 67.8971 21.2897 69.5082 15.7659C70.659 12.3135 70.4289 3.56746 66.5162 3.79762ZM78.7146 19.4484C78.7146 16.4564 78.9447 12.3135 80.786 8.40079C84.6987 0.575397 91.6035 0.805555 93.6749 5.86905C95.9765 11.3929 92.0638 21.9802 89.9924 25.2024C86.0797 31.6468 78.9447 30.7262 78.7146 19.4484ZM87.6908 23.5913C89.7622 20.369 92.7543 11.1627 91.1432 7.25C89.9924 4.4881 86.3098 4.94841 83.7781 9.78174C82.167 13.004 81.9368 16.6865 81.9368 19.4484C81.9368 25.8929 84.4685 28.6548 87.6908 23.5913ZM113.929 21.2897C112.778 24.2817 111.397 26.8135 109.556 28.4246C107.484 30.496 104.723 32.1071 101.73 31.4167C102.421 32.5675 103.342 33.7183 104.262 34.4087C104.953 35.0992 104.953 36.0198 104.262 36.4802C103.572 37.1706 102.651 37.1706 102.191 36.4802C100.119 34.4087 98.5082 32.1071 97.8178 29.3452C97.3574 30.0357 97.1273 30.7262 96.667 31.4167C96.2066 32.1071 95.286 32.3373 94.5955 32.1071C93.9051 31.6468 93.6749 30.7262 94.1352 30.0357C98.0479 23.131 101.73 16.2262 105.873 9.09127C106.334 8.40079 107.254 8.17063 107.945 8.63095C108.635 9.09127 108.865 10.0119 108.405 10.7024C108.405 10.7024 108.405 10.9325 108.175 10.9325C109.326 10.7024 110.476 10.9325 111.397 11.3929C115.54 13.2341 115.54 17.377 113.929 21.2897ZM111.167 20.1389C111.857 17.8373 112.548 15.3056 110.476 14.3849C109.096 13.6944 106.794 14.3849 105.643 16.2262C104.032 19.2183 102.421 21.75 101.04 24.5119C99.659 28.4246 103.802 30.496 107.715 26.3532C109.096 24.7421 110.246 22.6706 111.167 20.1389Z" fill="#373737"/>
</svg>
