<svg width="185" height="98" viewBox="0 0 185 98" fill="none" xmlns="http://www.w3.org/2000/svg">
<path fill-rule="evenodd" clip-rule="evenodd" d="M31.0093 59.9921C29.5383 59.9921 28.3865 61.0356 28.3865 62.5582C28.3865 64.0819 29.5442 65.1194 31.0093 65.1194C32.4735 65.1194 33.6322 64.0749 33.6322 62.5582C33.6322 61.0356 32.4794 59.9921 31.0093 59.9921ZM31.0093 64.3856C29.9604 64.3856 29.1823 63.6087 29.1823 62.5582C29.1823 61.5087 29.9545 60.7258 31.0093 60.7258C32.0514 60.7258 32.8354 61.5207 32.8354 62.5582C32.8354 63.5897 32.0444 64.3856 31.0093 64.3856ZM56.531 51.0165H43.7627L45.2141 28.5145L36.9224 51.0165H25.0657L43.8784 0.15538H56.4944L55.0381 22.9661L63.487 0.15538H75.3447L56.531 51.0165ZM58.0712 51.0165L76.883 0.15538H88.7397L69.9279 51.0165H58.0712Z" fill="white"/>
<path fill-rule="evenodd" clip-rule="evenodd" d="M23.6984 33.4854C7.12985 53.2138 -8.49948 79.4638 5.30582 91.5518C18.683 103.266 35.4038 96.3303 46.8048 91.7062C58.2057 87.0821 184.22 31.5968 184.22 31.5968C185.436 30.9804 185.209 30.2095 183.688 30.5944C183.075 30.7498 46.5012 68.2779 46.5012 68.2779C29.1705 73.2108 9.40964 62.46 23.6984 33.4854Z" fill="white"/>
<path fill-rule="evenodd" clip-rule="evenodd" d="M31.4563 62.7386C31.8241 62.7206 32.1118 62.5281 32.1118 62.0119C32.1118 61.3463 31.6827 61.1789 30.9659 61.1789H29.9358V63.9385H30.6229V62.7637H30.7386L31.3644 63.9385H32.1543L31.4563 62.7386ZM31.0154 62.2915H30.6239V61.651H30.9541C31.1568 61.651 31.3891 61.6751 31.3891 61.9427C31.3891 62.2294 31.2546 62.2915 31.0154 62.2915ZM150.197 0C148.726 0 147.574 1.04451 147.574 2.56616C147.574 4.08881 148.733 5.12631 150.197 5.12631C151.661 5.12631 152.82 4.0818 152.82 2.56616C152.821 1.04451 151.669 0 150.197 0ZM150.197 4.39455C149.148 4.39455 148.37 3.61769 148.37 2.56716C148.37 1.51764 149.142 0.734762 150.197 0.734762C151.239 0.734762 152.024 1.52967 152.024 2.56716C152.024 3.59864 151.233 4.39455 150.197 4.39455Z" fill="white"/>
<path fill-rule="evenodd" clip-rule="evenodd" d="M150.645 2.7466C151.013 2.72856 151.301 2.5361 151.301 2.01986C151.301 1.35426 150.871 1.18686 150.156 1.18686H149.125V3.94548H149.812V2.77166H149.928L150.553 3.94548H151.344L150.645 2.7466ZM150.203 2.29953H149.812V1.65899H150.143C150.344 1.65899 150.578 1.68405 150.578 1.95169C150.578 2.23738 150.442 2.29953 150.203 2.29953ZM142.385 8.63274L145.571 0.15538H109.393L96.971 15.414L102.706 0.15538H90.6971L72.0356 51.0165H83.8923L91.8598 29.7474L92.4055 51.0165L128.786 50.9363L132.249 41.1528H118.417L122.962 28.8232H134.362L137.87 19.3445H126.47L130.378 8.63274H142.385ZM104.168 47.6254L103.408 21.1167L121.335 1.15979L104.168 47.6254Z" fill="white"/>
</svg>
