<svg width="20" height="21" viewBox="0 0 20 21" fill="none" xmlns="http://www.w3.org/2000/svg">
<path d="M7.5 15.6797C7.36739 15.6797 7.24021 15.7324 7.14645 15.8261C7.05268 15.9199 7 16.0471 7 16.1797C7 16.3123 7.05268 16.4395 7.14645 16.5332C7.24021 16.627 7.36739 16.6797 7.5 16.6797H12.5C12.6326 16.6797 12.7598 16.627 12.8536 16.5332C12.9473 16.4395 13 16.3123 13 16.1797C13 16.0471 12.9473 15.9199 12.8536 15.8261C12.7598 15.7324 12.6326 15.6797 12.5 15.6797H7.5Z" fill="#FFF0BA"/>
<path fill-rule="evenodd" clip-rule="evenodd" d="M12.169 0.753104C11.5513 0.265318 10.7871 0 10 0C9.21289 0 8.44875 0.265318 7.831 0.753104L1.331 5.8851C0.916084 6.21273 0.580778 6.63009 0.350255 7.10586C0.119733 7.58162 -1.56699e-05 8.10343 1.53798e-09 8.6321V16.6781C1.53798e-09 17.6064 0.368749 18.4966 1.02513 19.153C1.6815 19.8094 2.57174 20.1781 3.5 20.1781H16.5C17.4283 20.1781 18.3185 19.8094 18.9749 19.153C19.6313 18.4966 20 17.6064 20 16.6781V8.6321C20 8.10343 19.8803 7.58162 19.6497 7.10586C19.4192 6.63009 19.0839 6.21273 18.669 5.8851L12.169 0.753104ZM8.451 1.5381C8.8922 1.18983 9.4379 1.0004 10 1.0004C10.5621 1.0004 11.1078 1.18983 11.549 1.5381L18.049 6.6701C18.3454 6.90408 18.5849 7.20216 18.7497 7.54197C18.9144 7.88178 19 8.25448 19 8.6321V16.6781C19 17.3411 18.7366 17.977 18.2678 18.4459C17.7989 18.9147 17.163 19.1781 16.5 19.1781H3.5C2.83696 19.1781 2.20107 18.9147 1.73223 18.4459C1.26339 17.977 1 17.3411 1 16.6781V8.6321C0.999925 8.25456 1.08536 7.88191 1.24989 7.54211C1.41442 7.2023 1.65378 6.90418 1.95 6.6701L8.451 1.5381Z" fill="#FFF0BA"/>
</svg>
