<svg width="16" height="15" viewBox="0 0 16 15" fill="none" xmlns="http://www.w3.org/2000/svg">
<path d="M15.9693 3.17086L10.3573 8.78286C9.73158 9.40703 8.88383 9.75755 8 9.75755C7.11617 9.75755 6.26842 9.40703 5.64267 8.78286L0.0306667 3.17086C0.0213333 3.27619 0 3.37152 0 3.47619V11.4762C0.00105857 12.3599 0.352588 13.2072 0.97748 13.832C1.60237 14.4569 2.4496 14.8085 3.33333 14.8095H12.6667C13.5504 14.8085 14.3976 14.4569 15.0225 13.832C15.6474 13.2072 15.9989 12.3599 16 11.4762V3.47619C16 3.37152 15.9787 3.27619 15.9693 3.17086Z" fill="#464646"/>
<path d="M9.41476 7.84019L15.5041 1.75019C15.2091 1.26107 14.7931 0.856215 14.2961 0.574677C13.7991 0.293139 13.2379 0.144417 12.6668 0.142857H3.33343C2.76224 0.144417 2.20109 0.293139 1.70411 0.574677C1.20713 0.856215 0.791079 1.26107 0.496094 1.75019L6.58543 7.84019C6.96114 8.2144 7.46982 8.4245 8.00009 8.4245C8.53037 8.4245 9.03905 8.2144 9.41476 7.84019Z" fill="#464646"/>
</svg>
