<svg width="16" height="16" viewBox="0 0 16 16" fill="none" xmlns="http://www.w3.org/2000/svg">
<path d="M16.0029 4.16516C16.0029 9.25861 9.24944 16.0054 4.16266 16.0054C3.0493 16.0054 2.00928 15.5854 1.24259 14.8187L0.575912 14.052C-0.197438 13.2787 -0.197439 11.972 0.609246 11.1653C0.629247 11.1453 2.23595 9.91195 2.23595 9.91195C2.62084 9.54607 3.1316 9.34204 3.66265 9.34204C4.1937 9.34204 4.70446 9.54607 5.08935 9.91195L6.0627 10.692C8.19608 9.78528 9.70945 8.26525 10.6828 6.05853L9.90946 5.08518C9.54052 4.70185 9.33442 4.19051 9.33442 3.65848C9.33442 3.12645 9.54052 2.61511 9.90946 2.23178C9.90946 2.23178 11.1428 0.625078 11.1628 0.605077C11.3545 0.413253 11.5821 0.261082 11.8326 0.15726C12.0831 0.053438 12.3517 0 12.6229 0C12.894 0 13.1626 0.053438 13.4131 0.15726C13.6636 0.261082 13.8912 0.413253 14.0829 0.605077L14.7829 1.21176C15.1729 1.59641 15.4819 2.05539 15.6914 2.56153C15.901 3.06767 16.0069 3.6107 16.0029 4.15849V4.16516Z" fill="#464646"/>
</svg>
