<svg width="0" height="0" class="hidden">
	<symbol fill="none" xmlns="http://www.w3.org/2000/svg" viewBox="0 0 24 24" id="hearth">
		<path d="M12 20.25C12 20.25 2.625 15 2.625 8.62501C2.625 7.49803 3.01546 6.40585 3.72996 5.53431C4.44445 4.66277 5.43884 4.0657 6.54393 3.84468C7.64903 3.62366 8.79657 3.79235 9.79131 4.32204C10.7861 4.85174 11.5665 5.70972 12 6.75001V6.75001C12.4335 5.70972 13.2139 4.85174 14.2087 4.32204C15.2034 3.79235 16.351 3.62366 17.4561 3.84468C18.5612 4.0657 19.5555 4.66277 20.27 5.53431C20.9845 6.40585 21.375 7.49803 21.375 8.62501C21.375 15 12 20.25 12 20.25Z" stroke-width="1.5" stroke-linecap="round" stroke-linejoin="round"></path>
	</symbol>

	<symbol fill="none" xmlns="http://www.w3.org/2000/svg" viewBox="0 0 24 24" id="bug">
		<path d="M19.5754 20.25H4.42537C4.24082 20.2491 4.0629 20.1811 3.92487 20.0586C3.78685 19.9361 3.69815 19.7675 3.67537 19.5844L2.34412 7.58438C2.33228 7.47982 2.34257 7.37394 2.37433 7.27363C2.40609 7.17331 2.4586 7.0808 2.52845 7.0021C2.5983 6.92341 2.68393 6.8603 2.77977 6.81686C2.87561 6.77343 2.97952 6.75065 3.08474 6.75H20.916C21.0212 6.75065 21.1251 6.77343 21.221 6.81686C21.3168 6.8603 21.4024 6.92341 21.4723 7.0021C21.5421 7.0808 21.5946 7.17331 21.6264 7.27363C21.6582 7.37394 21.6685 7.47982 21.6566 7.58438L20.3254 19.5844C20.3026 19.7675 20.2139 19.9361 20.0759 20.0586C19.9378 20.1811 19.7599 20.2491 19.5754 20.25V20.25Z"  stroke-width="1.5" stroke-linecap="round" stroke-linejoin="round"></path>
		<path d="M8.25 6.75C8.25 5.75544 8.64509 4.80161 9.34835 4.09835C10.0516 3.39509 11.0054 3 12 3C12.9946 3 13.9484 3.39509 14.6517 4.09835C15.3549 4.80161 15.75 5.75544 15.75 6.75"  stroke-width="1.5" stroke-linecap="round" stroke-linejoin="round"></path>
	</symbol>

	<symbol fill="currentColor" xmlns="http://www.w3.org/2000/svg" viewBox="0 0 20 21" id="house">
		<path d="M7.5 15.6797C7.36739 15.6797 7.24021 15.7324 7.14645 15.8261C7.05268 15.9199 7 16.0471 7 16.1797C7 16.3123 7.05268 16.4395 7.14645 16.5332C7.24021 16.627 7.36739 16.6797 7.5 16.6797H12.5C12.6326 16.6797 12.7598 16.627 12.8536 16.5332C12.9473 16.4395 13 16.3123 13 16.1797C13 16.0471 12.9473 15.9199 12.8536 15.8261C12.7598 15.7324 12.6326 15.6797 12.5 15.6797H7.5Z" ></path>
		<path fill-rule="evenodd" clip-rule="evenodd" d="M12.169 0.753104C11.5513 0.265318 10.7871 0 10 0C9.21289 0 8.44875 0.265318 7.831 0.753104L1.331 5.8851C0.916084 6.21273 0.580778 6.63009 0.350255 7.10586C0.119733 7.58162 -1.56699e-05 8.10343 1.53798e-09 8.6321V16.6781C1.53798e-09 17.6064 0.368749 18.4966 1.02513 19.153C1.6815 19.8094 2.57174 20.1781 3.5 20.1781H16.5C17.4283 20.1781 18.3185 19.8094 18.9749 19.153C19.6313 18.4966 20 17.6064 20 16.6781V8.6321C20 8.10343 19.8803 7.58162 19.6497 7.10586C19.4192 6.63009 19.0839 6.21273 18.669 5.8851L12.169 0.753104ZM8.451 1.5381C8.8922 1.18983 9.4379 1.0004 10 1.0004C10.5621 1.0004 11.1078 1.18983 11.549 1.5381L18.049 6.6701C18.3454 6.90408 18.5849 7.20216 18.7497 7.54197C18.9144 7.88178 19 8.25448 19 8.6321V16.6781C19 17.3411 18.7366 17.977 18.2678 18.4459C17.7989 18.9147 17.163 19.1781 16.5 19.1781H3.5C2.83696 19.1781 2.20107 18.9147 1.73223 18.4459C1.26339 17.977 1 17.3411 1 16.6781V8.6321C0.999925 8.25456 1.08536 7.88191 1.24989 7.54211C1.41442 7.2023 1.65378 6.90418 1.95 6.6701L8.451 1.5381Z" ></path>
	</symbol>
</svg>