<svg width="136" height="143" viewBox="0 0 136 143" fill="none" xmlns="http://www.w3.org/2000/svg">
<path d="M109.841 25.087C109.468 25.0307 109.093 24.9896 108.717 24.9638L115.31 18.5642L119.923 21.3093L135.216 0.699219L94.655 4.71277L102.943 9.93079C78.7982 17.3969 76.3287 18.2337 72.3384 19.1329C72.3025 17.2745 71.8428 15.4489 70.9943 13.7951C68.638 9.2579 63.3682 6.8671 58.5818 8.03701C53.3689 9.31227 49.8526 14.5793 50.743 19.7786C51.4252 23.7588 54.6481 27.5035 59.6948 28.8714C58.8347 30.6318 57.8743 32.5143 56.7778 34.5904L45.0534 38.1936C51.6614 26.9255 41.8396 14.1752 31.7834 15.8404C19.9277 17.803 14.9376 26.0317 16.9696 34.8445C17.8992 38.9177 20.407 42.4556 23.9426 44.6815L13.5947 47.8619L0.783691 121.992L108.574 142.301L123.848 69.9682L108.417 57.4664C114.738 58.0408 121.13 55.0881 124.551 49.8154C127.836 44.7526 128.102 38.1834 125.228 33.0804C122.23 27.7573 116.133 24.9006 109.841 25.087H109.841Z" fill="white"/>
<path d="M72.9439 33.5146L119.737 71.4265L105.686 137.971L5.07397 119.015L16.8716 50.7473L72.9439 33.5146Z" fill="#FF7800"/>
<path d="M71.2046 71.7816C65.3372 72.4891 59.9394 76.6085 57.9689 82.1803C55.9983 87.752 57.7117 94.5053 62.2761 98.2597C67.5117 102.566 77.5515 103.197 82.8378 93.9301C85.5013 89.2606 86.1824 83.2896 83.8058 78.468C81.4291 73.6465 75.8579 71.2209 71.2046 71.7816Z" fill="#5ED4BE"/>
<path d="M66.27 83.3493C68.7735 82.8735 72.7488 79.6895 74.2639 85.1709C74.693 86.7235 74.9633 88.3158 75.0708 89.923C75.2118 92.0377 75.1654 94.4152 76.6499 95.9275C77.0563 96.3415 77.2384 96.6219 76.8085 97.0144C75.4319 98.2704 73.0855 97.8029 71.7859 96.4676C68.7038 93.2999 70.2705 86.4119 67.6945 84.643C67.0845 84.2241 66.1479 84.1049 66.27 83.3493ZM65.6894 77.7017C65.7492 78.383 66.0384 79.0238 66.5098 79.5193C67.2609 80.3672 68.0564 80.5113 68.968 79.8237C69.394 79.5133 69.7257 79.0909 69.9262 78.6035C70.1266 78.116 70.1881 77.5825 70.1037 77.0622C69.5254 74.3024 65.5761 75.1772 65.6894 77.7017Z" fill="white"/>
<path d="M16.8716 50.7471L62.4053 94.5764L119.737 71.4263L105.686 137.971L5.07397 119.015L16.8716 50.7471Z" fill="#FFC93D"/>
<path d="M102.482 135.163L63.8051 96.9546C63.7364 96.8899 63.6814 96.8121 63.6432 96.7258C63.605 96.6395 63.5845 96.5464 63.5828 96.452C63.5811 96.3577 63.5983 96.264 63.6334 96.1763C63.6685 96.0887 63.7207 96.009 63.787 95.9419C63.8534 95.8747 63.9324 95.8215 64.0196 95.7854C64.1068 95.7493 64.2003 95.7309 64.2947 95.7315C64.3891 95.732 64.4824 95.7514 64.5691 95.7885C64.6559 95.8256 64.7344 95.8797 64.7999 95.9476L103.477 134.156C103.605 134.289 103.677 134.467 103.676 134.652C103.675 134.837 103.601 135.014 103.471 135.145C103.341 135.277 103.165 135.352 102.98 135.356C102.795 135.359 102.617 135.29 102.482 135.163ZM6.45105 117.814C6.3805 117.64 6.38196 117.445 6.45509 117.272C6.52822 117.099 6.66704 116.962 6.84102 116.892L58.8793 95.7949C59.0533 95.7244 59.2483 95.7258 59.4212 95.799C59.5942 95.8721 59.731 96.011 59.8016 96.185C59.8721 96.3591 59.8707 96.554 59.7975 96.727C59.7243 96.8999 59.5855 97.0367 59.4114 97.1073L7.37288 118.204C7.19888 118.274 7.00403 118.273 6.83117 118.2C6.6583 118.126 6.52158 117.988 6.45105 117.814Z" fill="#CD772B"/>
<path d="M109.602 28.8204C103.736 27.7145 97.2818 31.7439 96.7205 39.2708C96.2793 45.1909 100.181 51.181 105.789 53.1288C111.397 55.0767 118.199 52.7706 121.429 47.7904C123.889 43.9998 124.202 38.8432 121.985 34.9058C119.768 30.9685 115.019 28.5406 109.602 28.8204Z" fill="#FF3D81"/>
<path d="M112.239 49.9181C115.311 47.7646 119.543 43.177 119.587 39.5288C119.631 36.0051 116.147 34.1621 113.261 36.8038C112.184 37.7893 111.506 39.1249 110.559 40.5494C109.843 39.1054 109.095 37.6208 107.873 36.5704C103.611 32.9077 99.3813 38.0635 102.372 43.3843C103.263 44.9702 104.608 46.2551 106.033 47.3859C107.83 48.8113 109.895 50.0693 112.239 49.9181Z" fill="white"/>
<path d="M32.3908 19.5119C22.6911 21.1176 19.0434 27.2765 20.5954 34.0099C21.8406 39.4143 27.1212 44.8784 34.7034 42.1724C49.4291 36.917 43.2505 17.7141 32.3908 19.5119Z" fill="#776CFF"/>
<path d="M29.7818 38.7073C25.7518 37.5498 22.7816 32.707 25.2551 28.0939C27.6448 23.6335 33.1627 22.6678 36.2434 25.7499C38.6211 28.1296 38.1119 31.9682 36.5359 33.0469C35.5456 33.7246 34.2029 33.3188 33.4632 32.5326C32.9061 34.5875 31.1316 35.5224 29.7291 35.1131C27.1429 34.3567 26.9552 29.8945 29.5215 28.3573C31.3595 27.2559 33.5249 28.5173 33.5736 29.4777C33.7551 29.7612 33.8619 30.8753 34.4867 31.5538C34.8019 31.8965 35.3929 32.114 35.7361 31.8784C36.5617 31.3128 37.0281 28.5386 35.2417 26.7507C32.8571 24.3653 28.4663 25.0985 26.5034 28.7629C24.487 32.5238 27.0047 36.4365 30.1726 37.3462C32.8945 38.1278 36.1726 36.8469 37.7976 34.3675C38.172 33.796 38.7551 32.6832 38.4552 31.6524C38.4272 31.5626 38.4175 31.4681 38.4265 31.3744C38.4355 31.2808 38.463 31.1899 38.5076 31.107C38.5521 31.0242 38.6127 30.951 38.6858 30.8918C38.7589 30.8326 38.8431 30.7886 38.9334 30.7623C39.0237 30.736 39.1184 30.728 39.2118 30.7387C39.3053 30.7494 39.3957 30.7786 39.4777 30.8247C39.5597 30.8707 39.6318 30.9326 39.6896 31.0068C39.7475 31.081 39.7899 31.166 39.8146 31.2568C40.155 32.4247 39.859 33.805 38.9819 35.1434C37.0009 38.1663 33.1321 39.6693 29.7818 38.7073ZM30.2491 29.572C28.715 30.4913 28.7784 33.3598 30.127 33.754C30.8076 33.9528 31.5756 33.3675 31.8948 32.7096C32.2969 31.8818 32.2842 30.8285 32.2695 29.8951C31.9021 29.3338 30.9248 29.1678 30.2488 29.5723L30.2491 29.572Z" fill="white"/>
<path d="M110.424 18.1221L115.47 13.2238L124.853 6.58496L110.518 8.76223L110.424 18.1221Z" fill="#FF5800"/>
<path d="M56.1176 45.5556C56.0361 45.5108 55.9642 45.4504 55.906 45.3778C55.8479 45.3052 55.8046 45.2219 55.7787 45.1326C55.7528 45.0433 55.7447 44.9497 55.7549 44.8573C55.7651 44.7648 55.7935 44.6753 55.8383 44.5938C58.5627 39.6378 63.4134 30.8104 65.5862 25.5068C58.6647 25.809 55.2136 22.5241 54.6293 19.1129C54.0901 15.9657 56.3288 12.6474 59.5185 11.8675C62.5698 11.1209 65.9988 12.7312 67.4952 15.6125C68.8444 18.2106 68.5193 21.173 67.6618 23.9251C73.9483 23.2497 77.4379 21.9447 107.248 12.7267C107.337 12.697 107.432 12.6854 107.526 12.6926C107.62 12.6999 107.711 12.7258 107.795 12.7689C107.879 12.8121 107.953 12.8715 108.014 12.9437C108.074 13.0159 108.12 13.0995 108.148 13.1895C108.176 13.2795 108.185 13.3742 108.176 13.468C108.167 13.5618 108.139 13.6528 108.094 13.7357C108.049 13.8185 107.988 13.8916 107.915 13.9506C107.841 14.0096 107.757 14.0534 107.666 14.0793C78.5555 23.0815 74.0896 24.7691 67.1489 25.3989C65.1231 30.7081 59.017 41.7511 57.0788 45.2761C56.9883 45.4406 56.8363 45.5624 56.656 45.6148C56.4758 45.6673 56.2821 45.646 56.1176 45.5556ZM59.8547 13.2424C57.4033 13.8422 55.6137 16.4738 56.025 18.8733C56.7466 23.0849 61.503 24.3641 66.1356 24.0582C67.0583 21.3888 67.4652 18.627 66.2384 16.2648C65.0546 13.9855 62.252 12.6567 59.855 13.2424H59.8547Z" fill="#5ED4BE"/>
<path d="M105.822 7.34631L110.83 10.4989L123.579 6.92094L113.446 13.1256L118.938 16.3932L127.222 5.22852L105.822 7.34631Z" fill="#FCC836"/>
<path d="M51.678 46.3535C47.635 46.8321 43.4028 47.9856 40.6784 51.0105C36.9571 55.1419 37.3649 62.1568 41.225 66.1585C45.085 70.1601 51.6879 70.9489 56.625 68.3921C63.0339 65.073 64.4745 58.0744 61.9144 53.0773C60.0353 49.4098 55.9798 46.9686 51.678 46.3535Z" fill="#FF3D81"/>
<path d="M43.8096 52.8754C45.011 56.3954 46.4503 59.8296 48.1177 63.1542C48.8226 64.5598 49.7362 65.118 50.7583 63.9237C52.6014 61.7694 54.2047 59.4209 55.5399 56.9198C56.2804 55.5321 56.1983 54.5715 54.025 53.7522C51.5642 52.8244 49.0679 51.9989 46.5363 51.2756C43.4468 50.3931 43.3584 52.5004 43.8096 52.8757V52.8754Z" fill="white"/>
<path d="M75.7202 51.1562L79.6831 63.8672L86.8611 51.6048L91.0483 38.5947L75.7202 51.1562Z" fill="#FF5800"/>
<path d="M77.216 54.6718L68.2493 53.0845L92.6345 35.0215L90.2261 61.3132L82.4989 58.102L89.7775 40.0914L77.216 54.6718Z" fill="#FCC836"/>
</svg>
