<svg width="187" height="91" viewBox="0 0 187 91" fill="none" xmlns="http://www.w3.org/2000/svg">
<g filter="url(#filter0_d_138_260)">
<path fill-rule="evenodd" clip-rule="evenodd" d="M78.1392 38.0087L57.5591 38.7428L77.1001 39.8305L78.1392 38.0087ZM75.6774 42.3404L55.0485 43.0754L74.6623 44.167L75.6774 42.3404ZM73.2156 46.7085L52.6126 47.433L72.2024 48.5236L73.2156 46.7085ZM70.8046 51.0546L50.1757 51.7906L69.7426 52.8793L70.8046 51.0546ZM96.0221 16.1442L69.755 17.0805L96.0968 18.5467L96.0221 16.1442ZM95.8557 11.8451L72.2589 12.674L95.9303 14.0339L95.8557 11.8451ZM95.6873 7.69834L74.6632 8.39122L95.7887 9.56614L95.6873 7.69834ZM95.5457 3.4414L77.1173 4.05857L95.6184 5.15299L95.5457 3.4414ZM95.4261 0H79.3983L95.45 0.852922L95.4261 0ZM68.3189 55.3987L47.7397 56.1453H67.8989L68.3189 55.3987Z" fill="#464646"/>
<path fill-rule="evenodd" clip-rule="evenodd" d="M138.062 0.138977H108.404L107.563 1.63015L122.404 2.41886C122.578 2.41886 122.578 2.66612 122.329 2.66612L106.698 3.18937L105.19 5.83247L119.93 6.70456C120.128 6.72948 120.079 7.00165 119.906 7.00165L104.248 7.51723L102.791 10.0482L117.507 10.8666C117.829 10.8915 117.829 11.1647 117.507 11.1647L101.876 11.7138L100.392 14.3607L115.059 15.2031C115.38 15.228 115.356 15.5251 115.059 15.5251L99.4272 16.0829L97.9174 18.6972L112.609 19.5147C112.831 19.5396 112.857 19.8127 112.56 19.8127L67.518 21.324L110.26 23.7026C110.53 23.7026 110.507 24.0495 110.209 24.0495L65.0945 25.6605L107.836 28.0382C108.034 28.0382 108.083 28.3602 107.786 28.3602L62.5964 29.9951L105.338 32.3737C105.512 32.3986 105.684 32.7206 105.314 32.7455L60.1968 34.3536L102.938 36.7313C103.061 36.7562 103.184 37.0782 102.889 37.0782L80.1818 37.8889L80.2564 39.9417L100.489 41.0677C100.637 41.0927 100.711 41.3897 100.438 41.3897L80.331 42.1056L80.4296 44.4018L97.992 45.3793C98.1643 45.4042 98.2389 45.7511 97.9413 45.7511L80.5281 46.3635L80.6037 48.883L95.5685 49.7158C95.7408 49.7397 95.7905 50.0618 95.4939 50.0618L80.6783 50.5917L80.7769 53.3632L93.1441 54.0513C93.3182 54.0762 93.3182 54.3743 93.0704 54.3743L80.8266 54.818L80.8764 56.0092H120.799C131.384 56.0092 140.881 48.2792 142.663 42.1344C144.445 35.9905 144.445 30.4407 135.936 27.6663C140.686 26.5757 148.946 21.21 150.579 13.7915C152.06 7.05147 149.588 0.163894 138.062 0.138977ZM117.981 43.1684H105.713L112.638 30.8796H121.741C131.14 30.8796 126.588 43.1684 117.981 43.1684ZM133.859 16.8055C133.463 18.2918 130.493 22.0581 126.736 22.0581H117.634L123.47 11.7521H128.121C134.056 11.9505 134.254 15.32 133.859 16.8055ZM183 73.8161C183 69.0541 179.048 65.0655 174.293 65.0655C169.416 65.0655 165.434 69.1174 165.434 74.095C165.429 75.2659 165.655 76.4261 166.1 77.5088C166.546 78.5915 167.2 79.5752 168.027 80.4031C168.854 81.231 169.836 81.8867 170.917 82.3324C171.998 82.7781 173.156 83.005 174.325 82.9999C177.935 82.9999 181.362 80.5264 182.381 77.1559H177.874C176.978 78.5781 175.807 79.2269 174.2 79.2269C172.163 79.2269 170.343 77.8354 169.755 75.8564H182.782C182.938 74.899 183 74.4342 183 73.8161ZM169.633 72.6239C170.219 70.3048 172.072 68.8203 174.356 68.8203C176.641 68.8203 178.431 70.2741 178.986 72.6239H169.633ZM124.478 65.8906V67.2793C123.183 65.8878 121.306 65.0962 119.298 65.0962C114.853 65.0962 111.063 68.8989 111.063 73.8468C111.063 78.5149 114.416 82.7018 119.386 82.7018C121.578 82.7018 123.245 82.1949 124.819 80.4018V82.5974H128.587V65.8906H124.478ZM119.877 79.1608C118.504 79.1608 117.188 78.6145 116.217 77.6421C115.246 76.6697 114.701 75.3509 114.701 73.9757C114.701 72.6005 115.246 71.2817 116.217 70.3093C117.188 69.3369 118.504 68.7906 119.877 68.7906C121.25 68.7906 122.567 69.3369 123.538 70.3093C124.508 71.2817 125.054 72.6005 125.054 73.9757C125.054 75.3509 124.508 76.6697 123.538 77.6421C122.567 78.6145 121.25 79.1608 119.877 79.1608ZM12.2119 65.0646C10.5146 65.0646 9.21822 65.652 7.79742 67.1058V65.4671H4V82.5974H8.10645V74.5262C8.10645 72.3316 8.29111 68.8366 11.3164 68.8366C14.1561 68.8366 14.4651 72.1141 14.4651 74.2167V82.5964H18.5706V73.4127C18.5706 71.0005 18.386 69.8572 17.7373 68.4964C16.7805 66.4561 14.5273 65.0646 12.2119 65.0646ZM37.7232 73.8161C37.7232 69.0541 33.7718 65.0655 29.0176 65.0655C24.14 65.0655 20.1579 69.1174 20.1579 74.095C20.1531 75.2657 20.3798 76.4259 20.8249 77.5084C21.2699 78.591 21.9246 79.5746 22.7511 80.4025C23.5776 81.2303 24.5596 81.886 25.6404 82.3318C26.7212 82.7777 27.8794 83.0047 29.0482 82.9999C32.66 82.9999 36.0862 80.5264 37.1052 77.1559H32.5988C31.7032 78.5781 30.5302 79.2269 28.9248 79.2269C26.8878 79.2269 25.0661 77.8354 24.4796 75.8564H37.5061C37.662 74.899 37.7232 74.4342 37.7232 73.8161ZM24.3572 72.6239C24.9437 70.3048 26.796 68.8203 29.0807 68.8203C31.3655 68.8203 33.1556 70.2741 33.7115 72.6239H24.3572ZM105.276 82.583H109.381V59.7324H105.276V82.583ZM139.418 65.0646C137.72 65.0646 136.423 65.652 135.003 67.1058V65.4671H131.205V82.5974H135.313V74.5262C135.313 72.3316 135.497 68.8366 138.523 68.8366C141.361 68.8366 141.671 72.1141 141.671 74.2167V82.5964H145.777V73.4127C145.777 71.0005 145.592 69.8572 144.944 68.4964C143.987 66.4561 141.734 65.0646 139.418 65.0646ZM156.026 68.8375C157.908 68.8375 158.988 69.4566 160.008 71.1874H164.637C163.372 67.5083 160.131 65.0646 156.179 65.0646C151.178 65.0646 147.164 69.0532 147.164 73.9704C147.164 78.9174 151.208 82.9989 156.179 82.9989C157.447 82.9923 158.699 82.7223 159.857 82.206C161.016 81.6897 162.054 80.9383 162.908 79.9993C163.773 79.041 164.082 78.4842 164.637 76.97H160.008C159.049 78.4535 157.816 79.2259 156.273 79.2259C153.4 79.2259 151.272 76.9997 151.272 74.0308C151.272 71.0331 153.309 68.8375 156.026 68.8375ZM53.4162 75.9187L50.5085 65.468H47.2048L44.2656 75.9187L40.7897 65.468H37.1674L42.8774 82.5974H45.5075L48.8419 71.4979L52.0824 82.5974H54.8427L60.3183 65.468H56.9237L53.4162 75.9187ZM75.4132 65.0828C73.4069 65.0828 71.5297 65.8744 70.2333 67.2649V59.7333H66.1268V82.583H69.8927V80.3884C71.4675 82.1815 73.1342 82.6875 75.3262 82.6875C80.2966 82.6875 83.6491 78.5014 83.6491 73.8324C83.6501 68.8855 79.8593 65.0828 75.4132 65.0828ZM74.8344 79.1608C73.4615 79.1608 72.1448 78.6145 71.174 77.6421C70.2032 76.6697 69.6578 75.3509 69.6578 73.9757C69.6578 72.6005 70.2032 71.2817 71.174 70.3093C72.1448 69.3369 73.4615 68.7906 74.8344 68.7906C76.2073 68.7906 77.524 69.3369 78.4948 70.3093C79.4656 71.2817 80.011 72.6005 80.011 73.9757C80.011 75.3509 79.4656 76.6697 78.4948 77.6421C77.524 78.6145 76.2073 79.1608 74.8344 79.1608ZM98.4264 65.8906V67.2793C97.13 65.8878 95.2538 65.0962 93.2465 65.0962C88.8013 65.0962 85.0096 68.8989 85.0096 73.8468C85.0096 78.5149 88.3631 82.7018 93.3326 82.7018C95.5245 82.7018 97.1912 82.1949 98.7661 80.4018V82.5974H102.532V65.8906H98.4264ZM93.8263 79.1608C92.4533 79.1608 91.1367 78.6145 90.1659 77.6421C89.1951 76.6697 88.6497 75.3509 88.6497 73.9757C88.6497 72.6005 89.1951 71.2817 90.1659 70.3093C91.1367 69.3369 92.4533 68.7906 93.8263 68.7906C95.1992 68.7906 96.5159 69.3369 97.4867 70.3093C98.4575 71.2817 99.0029 72.6005 99.0029 73.9757C99.0029 75.3509 98.4575 76.6697 97.4867 77.6421C96.5159 78.6145 95.1992 79.1608 93.8263 79.1608Z" fill="#464646"/>
</g>
<defs>
<filter id="filter0_d_138_260" x="0" y="0" width="187" height="91" filterUnits="userSpaceOnUse" color-interpolation-filters="sRGB">
<feFlood flood-opacity="0" result="BackgroundImageFix"/>
<feColorMatrix in="SourceAlpha" type="matrix" values="0 0 0 0 0 0 0 0 0 0 0 0 0 0 0 0 0 0 127 0" result="hardAlpha"/>
<feOffset dy="4"/>
<feGaussianBlur stdDeviation="2"/>
<feComposite in2="hardAlpha" operator="out"/>
<feColorMatrix type="matrix" values="0 0 0 0 0 0 0 0 0 0 0 0 0 0 0 0 0 0 0.25 0"/>
<feBlend mode="normal" in2="BackgroundImageFix" result="effect1_dropShadow_138_260"/>
<feBlend mode="normal" in="SourceGraphic" in2="effect1_dropShadow_138_260" result="shape"/>
</filter>
</defs>
</svg>
