<svg width="147" height="93" viewBox="0 0 147 93" fill="none" xmlns="http://www.w3.org/2000/svg">
<g clip-path="url(#clip0_138_264)">
<path d="M74.5099 3.68064C74.4873 3.56056 74.4719 3.43923 74.4639 3.31731C74.4213 2.70575 74.5613 2.0953 74.8662 1.56314C75.1712 1.03098 75.6273 0.601006 76.1771 0.327561C76.7268 0.0541171 77.3455 -0.050516 77.9548 0.0268891C78.5641 0.104294 79.1368 0.360262 79.6004 0.762435C80.064 1.16461 80.3977 1.69493 80.5593 2.28636C80.721 2.87779 80.7033 3.50378 80.5086 4.08519C80.3138 4.6666 79.9507 5.17733 79.4652 5.55282C78.9796 5.9283 78.3934 6.15169 77.7807 6.19473C77.6739 6.20087 77.5668 6.20087 77.4599 6.19473C77.3968 6.20458 77.3378 6.23209 77.2897 6.27408C77.114 6.55249 77.7375 6.49681 77.3135 7.69399C77.3093 7.78363 77.2924 7.87223 77.2632 7.9571C77.2298 8.41648 77.0526 9.77932 77.0275 10.5046C77.1182 10.6104 77.1433 10.6605 77.1335 10.9222C77.0786 11.5024 76.9944 12.0795 76.8811 12.6512C76.8615 12.789 76.8108 12.9205 76.7328 13.0358C76.6547 13.1511 76.5513 13.2471 76.4305 13.3166C76.2157 14.2771 76.1586 15.0734 75.6062 16.2399C75.556 17.1253 75.4932 17.3661 75.3077 17.7977C75.2868 19.1007 75.3775 19.2942 74.496 21.3572C74.2686 22.3219 74.4848 22.9887 74.7247 23.9924C74.9702 25.0226 75.6509 25.4527 75.7527 26.5079C75.9912 28.9928 75.9312 30.6841 75.397 32.633L75.8629 33.7356C76.4417 34 77.8769 34.7239 77.0805 35.871C78.1964 36.4598 79.8952 37.0835 81.2914 38.2765C81.8928 38.7582 82.457 39.2845 82.9791 39.8509C83.9932 40.0082 83.8844 40.089 84.6362 40.547C86.8455 41.8987 90.3897 44.584 92.447 46.4814C92.8013 46.6874 92.945 46.8364 93.2309 46.9853C93.2756 47.0716 93.2881 47.0911 93.2783 47.1134C93.1793 47.3612 93.1835 47.3681 93.0956 47.5658C93.2364 47.6881 93.3835 47.8029 93.5364 47.9097C93.6521 47.9459 93.6521 47.8902 93.8502 47.8414C94.1082 48.0823 94.4277 48.2758 94.5476 48.2591C94.8977 48.17 94.8377 48.2424 95.1334 47.9124C95.2394 47.8039 95.4124 47.9124 95.4124 47.9124C95.6022 47.6859 95.8273 47.4913 96.0791 47.3361C96.333 47.1872 96.8169 47.1705 96.8169 47.1705C96.9787 47.1705 96.9481 47.3375 96.9341 47.3918C96.7514 47.4865 96.3622 47.5895 96.1447 47.7496C95.8209 48.1011 95.5369 48.4872 95.298 48.9008C96.2534 48.77 96.8407 49.0066 97.6371 48.9161C98.0709 48.8911 98.3917 48.9161 98.8478 48.589C99.1115 48.405 99.3916 48.2456 99.6847 48.1129C100.067 47.9473 100.428 48.0349 100.764 48.2786C101.001 48.5458 101.144 48.5472 100.784 48.9231C100.654 49.0693 100.464 49.2335 100.226 49.4702C99.7249 49.9796 99.1955 50.4601 98.64 50.9096C98.1149 51.3247 97.5479 51.6839 96.9481 51.9815C95.8838 52.7443 96.1349 52.5383 95.2994 53.3012C95.1934 53.3958 94.913 53.5643 94.7777 53.6534C94.4472 53.8691 94.3454 53.6896 94.1292 53.2928C94.0345 53.1427 93.9475 52.988 93.8683 52.8293C93.6912 52.484 93.5573 52.0901 93.6117 52.097C93.4136 52.072 92.521 51.0279 92.5196 50.8038C92.3313 50.7606 91.5265 49.9825 91.4972 49.8293L90.7844 49.2586C89.9685 49.427 89.7816 48.9217 87.6266 47.396C87.3811 47.396 87.0017 47.2568 86.4578 46.8559C85.4814 46.0791 83.1535 44.3209 82.7588 44.1204C82.3403 43.9047 81.827 43.7028 81.516 43.4453C81.0501 43.359 80.7949 43.3061 80.5619 43.2462C80.2169 43.1372 79.8625 43.0603 79.5033 43.0165C78.5269 42.8954 77.5031 42.4889 76.5338 42.0045C76.0749 41.7873 75.6746 41.6759 75.2784 41.5075C74.3913 41.1344 73.6326 40.7976 73.0468 40.6611C72.4016 40.5227 71.778 40.2979 71.1931 39.9929C71.0563 39.904 70.911 39.8289 70.7593 39.7688C70.5496 39.7305 70.333 39.7634 70.1442 39.8621C69.4259 40.2365 68.7494 40.5581 68.1315 40.8922C67.5526 41.2012 67.0156 41.5214 66.4577 41.8458C65.9486 42.1395 65.36 42.4165 64.7561 42.7047C64.7561 42.7047 63.0321 43.5678 62.0906 43.9019C60.9775 44.7764 59.806 45.574 58.5841 46.2893C58.0792 46.5287 57.0986 47.1496 56.6467 47.2874C56.3886 47.4948 55.4695 48.1491 54.7498 48.6892C54.1918 49.1068 53.7734 49.4549 53.7734 49.4549C53.4498 49.7444 53.4721 49.8808 52.8584 49.6205C52.6882 49.7597 52.5557 49.8474 52.44 49.9282C51.9964 50.2497 51.9588 50.1718 51.797 50.1634C51.4873 50.4307 51.4483 50.2929 51.1777 50.5992C51.0005 50.8776 51.1777 50.808 50.8067 50.9416C50.7272 50.9722 50.6895 51.0669 50.6295 51.1198C50.3282 51.3676 50.3268 52.0664 49.6057 52.1165C49.1873 52.4144 49.2947 52.7722 48.9753 52.7569C48.9948 53.0659 48.4174 53.5156 48.3058 53.5142C47.3866 53.8316 47.3224 53.1564 46.2136 53.6534C46.0741 53.7188 45.8607 53.8984 45.5859 53.9513C45.1005 54.0431 44.5133 53.9513 44.1562 53.6729C43.5983 53.2399 43.0739 52.4033 43.0739 52.4033C42.8953 51.9857 42.9986 51.7072 43.5579 51.3147C43.7908 51.1671 43.8368 51.0558 44.2246 51.0363C44.4185 50.9625 44.3641 51.0752 44.7128 50.95C44.9136 50.8776 44.9136 50.9291 45.3195 50.8943C45.446 50.8323 45.5795 50.7856 45.717 50.7551C46.0378 50.6493 46.3503 50.5323 46.3503 50.5323C46.3503 50.5323 46.4326 50.4502 46.7394 50.4794C47.0002 50.3722 47.268 50.2149 47.4047 50.1662C47.3699 49.7486 47.4145 49.7737 47.6056 49.6094C47.8441 49.4048 47.8846 49.4382 48.0645 49.5648C48.1398 49.5217 48.1761 49.5064 48.1677 49.4437C48.1384 49.2294 47.9543 49.1277 48.0101 48.6544C47.9278 48.4651 47.8078 48.2368 47.8343 48.0892C47.8608 47.9417 47.9111 47.8637 48.0031 47.8108C48.0952 47.7579 48.1342 47.8289 48.1858 47.8888C48.2654 48.0231 48.3229 48.1692 48.356 48.3217C48.3895 48.6878 48.5024 49.157 48.8651 48.8939C49.0785 48.6781 49.1203 48.1018 49.5625 48.2257L49.8735 48.4957C50.001 48.3603 50.147 48.2436 50.3073 48.1491C50.3073 48.1491 50.0604 47.8999 50.2766 47.7064C50.509 47.5343 50.7247 47.3409 50.921 47.1287C51.6104 46.343 52.3679 45.6195 53.1848 44.9668C54.8148 43.6537 56.6293 42.5866 58.5701 41.7998C59.0137 41.243 59.4461 40.8644 60.4308 40.7697C61.601 38.7971 63.8425 37.0348 64.3585 36.7536C64.777 35.9963 64.9597 36.077 65.5065 35.9183C65.9402 35.5717 66.0393 35.5717 66.2332 35.2084C66.4215 34.4594 65.798 32.459 67.3908 32.3574C67.5827 32.072 67.7938 31.7999 68.0227 31.543C67.8146 31.0265 67.6703 30.4866 67.5931 29.9352C67.5805 29.8823 66.9612 29.4466 67.137 28.8772C66.7896 28.446 66.485 27.9821 66.2276 27.4921C66.1579 27.4854 66.0889 27.4733 66.0211 27.4559C65.9402 27.4434 65.8412 27.4475 65.7282 27.4378C65.48 28.0768 65.2094 28.1241 64.7686 28.2661C63.9806 29.9366 63.703 30.6507 61.4741 32.0372C60.9418 32.6374 60.5451 33.3448 60.3108 34.1114C60.1588 34.4385 60.2118 34.8952 60.2927 35.1402C60.1755 35.5035 60.2062 35.5383 60.2062 35.5383C60.2316 35.6183 60.2744 35.6918 60.3315 35.7534C60.3887 35.815 60.4588 35.8633 60.5368 35.8947C60.8046 35.9657 61.0724 35.9545 61.0571 36.2524C61.0208 36.6255 60.5312 36.5642 60.2997 36.5225C59.407 36.3833 59.6901 35.8014 59.1197 35.9949C58.6831 36.2733 58.5185 37.1225 57.8058 37.0125C57.7109 36.9499 57.7402 36.7661 57.8058 36.6339C57.9062 36.4264 58.0847 36.2538 57.9773 36.1772C57.5143 36.3165 56.5825 36.6297 56.5825 36.6297C56.146 36.7494 55.6675 36.5308 56.0971 36.2441C56.3903 36.1427 56.671 36.0087 56.934 35.8445C56.934 35.8445 57.1153 35.5981 56.768 35.7206C56.3366 35.8684 55.8798 35.9281 55.4248 35.8961C55.4248 35.8961 54.588 35.7875 54.4847 35.722C54.3815 35.6566 54.2783 35.3991 54.5391 35.4005C55.1461 35.3761 55.7488 35.2875 56.337 35.136C56.6467 35.0163 57.2339 34.6682 57.5645 34.5054C57.5645 34.5054 57.9229 33.9847 58.1224 33.8817C58.4516 33.5031 58.7291 33.2803 59.0192 32.8947C59.2982 32.3087 59.5981 31.3816 60.5396 29.9463C61.0204 29.19 61.5744 28.4827 62.1938 27.8345C62.3414 27.1098 62.7132 26.4496 63.2567 25.9469C63.4886 25.4312 63.7508 24.9297 64.0419 24.4448C64.1563 24.2527 64.2637 24.0843 64.3725 23.9019C64.6515 23.4718 64.9304 22.6699 66.0072 22.5433C66.2388 22.3744 66.4511 22.1806 66.6404 21.9656C66.9194 21.7317 66.8524 21.367 67.0756 21.1108C66.7339 20.7781 65.8621 20.1545 65.7771 19.2858C65.7308 18.8768 65.7785 18.4627 65.9165 18.0749C66.0545 17.687 66.2792 17.3356 66.5735 17.0473C67.1928 16.4293 67.8442 16.1216 68.6364 16.1676C69.6253 16.3137 69.8122 16.6409 70.1274 16.9652C70.4427 17.2896 70.5459 17.0752 70.67 17.4343C71.4999 17.6543 71.4539 17.5582 71.4469 18.1666C71.5738 18.3378 71.7886 18.4979 71.7859 18.8529C72.0648 18.2752 72.1206 18.1694 72.8654 17.5332C73.0412 17.0167 73.1611 16.5086 73.316 15.9922C73.4554 15.5147 73.6409 15.0177 73.7818 14.653C73.634 13.6089 73.938 13.4363 74.3397 12.5217C74.2672 12.3964 74.2826 12.3602 74.3132 12.1528C74.4708 11.5473 74.7177 10.7482 74.8712 10.2262C74.8865 10.1664 74.9202 10.1128 74.9674 10.0729C75.0146 10.033 75.0731 10.0087 75.1348 10.0034C75.3203 9.34361 75.5992 8.11301 75.6467 7.86244C75.8378 7.1664 75.715 6.95063 75.5672 6.56085C75.5197 6.43417 75.5421 6.2518 75.4598 6.1112C75.2282 5.7089 74.9786 5.18548 74.8098 4.81101C74.6996 4.57296 74.5308 3.67507 74.5308 3.67507C74.383 3.21708 74.5127 3.67507 74.5127 3.67507" fill="#464646"/>
</g>
<path fill-rule="evenodd" clip-rule="evenodd" d="M133.489 91.4019V92.1881H138.314L138.227 74.7438L142.043 92.1881H147V57.1225H142.173L142.218 74.5253L138.446 57.1225H133.489V91.4019ZM81.1553 91.4019V92.1881H86.5069C87.4099 92.2379 88.3149 92.1344 89.1831 91.8819C89.9287 91.7073 90.6304 91.3126 91.1121 90.701C91.2441 90.5694 91.3761 90.4394 91.4633 90.2632H91.5081C91.9505 89.5571 92.29 88.7919 92.5162 87.9905C93.0426 86.0233 93.3498 84.0122 93.5258 82.0011V81.9565C93.7086 77.5137 93.7377 73.066 93.613 68.6213C93.613 66.9156 93.481 65.1669 93.1298 63.462C92.9546 62.3249 92.6034 61.1885 92.1217 60.0953C91.7273 59.2205 91.1121 58.4335 90.2784 57.8649C90.2352 57.821 90.1912 57.7772 90.148 57.7772H90.1032C89.796 57.5587 89.4447 57.4279 89.0503 57.3402C88.5671 57.2094 88.0422 57.1217 87.559 57.1217H81.1553V91.4019ZM85.7165 85.674V63.5935C86.2445 63.5935 86.7709 63.5935 87.2974 63.6812C87.4278 63.6812 87.5598 63.7251 87.647 63.769H87.6918C87.8238 63.8559 87.9542 63.9875 88.043 64.119C88.0862 64.1629 88.0862 64.2067 88.1302 64.2937C88.2607 64.6429 88.3927 64.9938 88.4799 65.3431C88.6991 66.0863 88.7871 66.8733 88.8311 67.6604C89.0503 71.0709 89.0951 74.4807 89.0063 77.892C89.0063 79.3345 88.9191 80.7771 88.7871 82.2204C88.6999 83.1382 88.4799 84.013 88.2174 84.8862C88.1727 85.0178 88.0854 85.1493 88.0422 85.2362H87.9974C87.9527 85.3678 87.8222 85.4547 87.7334 85.4978H87.6902C87.5582 85.5863 87.383 85.6294 87.251 85.6294H86.9438L85.7165 85.674ZM50.6228 91.4019V92.1881H54.9655V77.4965C55.4919 77.4965 55.9744 77.5412 56.4568 77.6281H56.5008C56.632 77.6281 56.7632 77.6727 56.8952 77.715C57.1145 77.8035 57.2457 77.9335 57.4217 78.1097C57.5969 78.4159 57.7721 78.7644 57.8161 79.1145C57.9481 79.6838 57.9921 80.2955 58.0353 80.864L58.1233 87.1596C58.1233 88.646 58.2113 90.0886 58.3865 91.5311L58.4745 92.1874H64.0014L63.3877 90.9641C63.1245 90.4394 62.9053 89.9147 62.8173 89.3015C62.7293 88.6468 62.642 87.9905 62.642 87.3343L62.4668 80.0762C62.4668 79.0268 62.3788 77.9335 62.2036 76.928C62.0681 76.0641 61.7379 75.2422 61.238 74.5237L61.194 74.4791C61.0854 74.3271 60.952 74.1942 60.7995 74.086C60.8867 73.9991 60.9747 73.9098 61.0187 73.8228C61.5444 73.0796 61.9396 72.2487 62.1156 71.3309C62.598 68.6635 62.686 65.9531 62.3348 63.2858C62.2575 62.2644 62.0205 61.2614 61.6324 60.313C61.3252 59.4382 60.7987 58.695 60.0971 58.0834L60.0531 58.0395C59.3074 57.5148 58.3858 57.1648 57.4209 57.1209H50.6212V91.4019H50.6228ZM54.9663 71.2886V63.375H55.9752C56.3264 63.375 56.6328 63.4189 56.984 63.5497C57.16 63.6374 57.3352 63.7251 57.4665 63.8997C57.4665 63.8997 57.4665 63.9436 57.5105 63.9436V63.9875C57.5545 64.0313 57.5545 64.0744 57.5985 64.1182C57.7737 64.4683 57.9057 64.8614 57.9497 65.2115C58.1249 66.654 58.0809 68.0973 57.9057 69.496C57.8617 69.8899 57.7305 70.2392 57.5985 70.5893C57.5105 70.7639 57.3792 70.8955 57.2472 71.0263C56.9707 71.1593 56.6747 71.2479 56.3704 71.2886H54.9663ZM25.6186 74.6553C25.5746 76.6664 25.6186 78.6352 25.7066 80.6463C25.7506 82.2204 25.8818 83.7945 26.057 85.3678V85.4109C26.2331 86.8973 26.6275 88.3844 27.1979 89.827C27.5051 90.6587 28.0316 91.4026 28.6892 92.0574C28.8204 92.1889 28.9965 92.2758 29.1277 92.4074H29.1717C29.4789 92.6259 29.8293 92.7575 30.1805 92.8452C30.9262 93.0198 31.6718 93.0637 32.4183 92.8883C32.8644 92.794 33.2935 92.6321 33.6904 92.4082V92.3628H33.7344C34.3933 91.8897 34.9214 91.2583 35.2697 90.5271C35.3577 90.3525 35.4889 90.177 35.5329 90.0024C36.1906 88.4714 36.6298 86.8103 36.761 85.1493C37.2002 79.7269 37.3314 74.306 37.1122 68.9282C37.0679 67.1738 36.9363 65.4227 36.7178 63.6812C36.5426 62.2387 36.1473 60.7954 35.6209 59.4398C35.2699 58.6112 34.7466 57.8663 34.0856 57.2541C33.9096 57.1225 33.7784 56.9917 33.6464 56.904L33.6024 56.8601C33.2856 56.6839 32.9462 56.5516 32.5935 56.467C31.8582 56.2916 31.0918 56.2916 30.3565 56.467C29.9102 56.5611 29.4811 56.7233 29.0845 56.9479V56.9917H29.0405C28.426 57.4726 27.8996 58.1288 27.5051 58.8282L27.2419 59.3529C26.6327 60.8201 26.2338 62.3655 26.057 63.9436C25.7066 67.4849 25.5314 71.0709 25.6186 74.6553ZM29.8301 74.6992V74.6545C29.8301 72.5134 29.8301 70.3269 29.9173 68.1843C29.9173 67.0479 30.0493 65.9547 30.2245 64.8614V64.8176C30.274 64.3793 30.3923 63.9514 30.575 63.5497C30.663 63.375 30.751 63.2004 30.9262 63.0688L31.0142 62.9819C31.2334 62.8511 31.5406 62.8511 31.8039 62.9819C31.8039 63.0258 31.8479 63.0258 31.8919 63.0688C31.9359 63.1127 32.0231 63.1565 32.0671 63.2004C32.2423 63.4628 32.3743 63.7251 32.4183 64.0313C32.6375 64.8184 32.7255 65.6054 32.8127 66.3925C32.9879 70.6778 33.0319 74.9631 32.9439 79.2915V79.3345C32.9508 81.001 32.8482 82.6661 32.6367 84.3192C32.5875 84.7995 32.4695 85.2702 32.2863 85.7171C32.1983 85.8933 32.1111 86.0672 31.9351 86.1987C31.9351 86.2434 31.8471 86.2856 31.8039 86.3303C31.5846 86.4172 31.2774 86.4172 31.0582 86.2856C31.0142 86.2856 30.9702 86.2426 30.9702 86.2426H30.9262C30.8723 86.1921 30.8279 86.1324 30.795 86.0664C30.6198 85.8479 30.4878 85.5417 30.4005 85.2355C30.2253 84.5361 30.0933 83.836 30.0501 83.0928C29.8741 80.2962 29.7861 77.4973 29.8301 74.6992ZM0.74644 80.0331H0V84.493C0 85.8056 0.132002 87.1166 0.439221 88.3844C0.6639 89.3048 1.04985 90.1783 1.57931 90.9649C2.06175 91.7511 2.8514 92.3628 3.72906 92.669C4.95715 93.1068 6.36124 93.1068 7.58933 92.6259C8.33499 92.3197 9.03664 91.8381 9.51986 91.2264C10.2497 90.2432 10.745 89.1071 10.968 87.9044C11.1422 86.9963 11.2304 86.0739 11.2312 85.1493L11.2752 57.9095V57.1225H6.05481V79.5076C6.09881 81.3887 6.05481 83.269 6.01081 85.1916C6.01081 85.4978 5.96681 85.8479 5.87959 86.1979C5.87959 86.2849 5.83559 86.3726 5.79159 86.4595C5.74759 86.5041 5.74759 86.548 5.70359 86.548C5.66296 86.5856 5.61171 86.61 5.55677 86.6177C5.50183 86.6254 5.44585 86.6161 5.39637 86.5911L5.30915 86.548C5.25586 86.4813 5.21173 86.4078 5.17794 86.3295L5.04672 85.9348C5.00272 85.6286 4.95872 85.3232 4.95872 85.017V80.0323L0.74644 80.0331Z" fill="#464646"/>
<path fill-rule="evenodd" clip-rule="evenodd" d="M107.519 91.2703L107.431 92.1881H112.081L112.914 83.7945H115.591L116.424 92.1881H121.293L117.083 57.1225H111.555L107.519 91.2703Z" fill="#464646"/>
<path fill-rule="evenodd" clip-rule="evenodd" d="M46.7185 76.0987L44.1744 69.7145H42.8143L40.3141 76.0987H41.6734L42.1998 74.6546H44.788L45.3145 76.0987H46.7185ZM44.3504 73.5629H42.5958L43.4735 71.2017L44.3504 73.5629ZM72.4252 76.3602H73.6972V69.9777H72.4252V76.3602ZM99.0518 77.0165H100.369V74.393H100.631C100.808 74.3483 100.982 74.393 101.158 74.393C101.273 74.4249 101.379 74.4849 101.466 74.5676C101.597 74.6123 101.684 74.7438 101.774 74.8308C101.993 75.0923 102.168 75.3555 102.343 75.6617L103.266 77.0165H104.845L104.055 75.7932C103.923 75.5747 103.747 75.3555 103.615 75.137C103.358 74.7551 103.012 74.4403 102.607 74.2191C102.782 74.2191 102.957 74.1745 103.089 74.0876C103.417 74.0094 103.711 73.8249 103.923 73.5629C104.187 73.2567 104.319 72.862 104.319 72.4265C104.319 72.3396 104.319 72.208 104.274 72.1203C104.229 71.551 103.835 71.0701 103.308 70.8516C103.164 70.7628 102.996 70.7173 102.826 70.7209C102.475 70.677 102.123 70.6332 101.774 70.677H99.0526V77.0165H99.0518ZM100.369 73.3444V71.7264H102.08C102.167 71.7264 102.255 71.771 102.299 71.771H102.43C102.523 71.7955 102.611 71.8393 102.687 71.8996C102.762 71.9599 102.824 72.0353 102.869 72.1211C102.956 72.2511 102.956 72.3827 102.956 72.5142V72.6889C102.935 72.8299 102.875 72.9622 102.781 73.0704C102.688 73.1786 102.566 73.2584 102.43 73.3005C102.342 73.3005 102.254 73.3005 102.167 73.3452H100.369V73.3444Z" fill="#464646"/>
<path fill-rule="evenodd" clip-rule="evenodd" d="M113.618 77.148H114.932L114.274 70.5892L113.618 77.148Z" fill="white"/>
<defs>
<clipPath id="clip0_138_264">
<rect width="58" height="54" fill="white" transform="translate(43)"/>
</clipPath>
</defs>
</svg>
