<svg width="168" height="93" viewBox="0 0 168 93" fill="none" xmlns="http://www.w3.org/2000/svg">
<g filter="url(#filter0_d_138_244)">
<path fill-rule="evenodd" clip-rule="evenodd" d="M30.8189 51.9714C29.5466 51.9714 28.5505 52.8754 28.5505 54.1945C28.5505 55.5145 29.5517 56.4132 30.8189 56.4132C32.0852 56.4132 33.0873 55.5084 33.0873 54.1945C33.0873 52.8754 32.0903 51.9714 30.8189 51.9714ZM30.8189 55.7776C29.9117 55.7776 29.2388 55.1046 29.2388 54.1945C29.2388 53.2853 29.9066 52.6071 30.8189 52.6071C31.7201 52.6071 32.3981 53.2957 32.3981 54.1945C32.3981 55.0881 31.7141 55.7776 30.8189 55.7776ZM52.8916 44.1959H41.8489L43.104 24.7022L35.9329 44.1959H25.6784L41.9489 0.134583H52.86L51.6005 19.8957L58.9077 0.134583H69.163L52.8916 44.1959ZM54.2238 44.1959L70.4934 0.134583H80.7478L64.4782 44.1959H54.2238Z" fill="#464646"/>
<path fill-rule="evenodd" clip-rule="evenodd" d="M24.4959 29.0086C10.1664 46.0994 -3.3509 68.8399 8.58882 79.3118C20.1583 89.4599 34.6195 83.4515 44.4798 79.4456C54.3401 75.4397 163.325 27.3725 163.325 27.3725C164.377 26.8385 164.18 26.1707 162.865 26.5041C162.335 26.6387 44.2173 59.1495 44.2173 59.1495C29.2285 63.4229 12.1381 54.1094 24.4959 29.0086Z" fill="#464646"/>
<path fill-rule="evenodd" clip-rule="evenodd" d="M31.2054 54.3508C31.5235 54.3352 31.7723 54.1685 31.7723 53.7212C31.7723 53.1446 31.4012 52.9996 30.7813 52.9996H29.8903V55.3903H30.4846V54.3725H30.5846L31.1259 55.3903H31.809L31.2054 54.3508ZM30.824 53.9635H30.4854V53.4086H30.771C30.9463 53.4086 31.1472 53.4295 31.1472 53.6613C31.1472 53.9097 31.031 53.9635 30.824 53.9635ZM133.9 0C132.628 0 131.632 0.904861 131.632 2.22308C131.632 3.54216 132.634 4.44095 133.9 4.44095C135.167 4.44095 136.169 3.53608 136.169 2.22308C136.17 0.904861 135.173 0 133.9 0ZM133.9 3.80702C132.993 3.80702 132.32 3.13402 132.32 2.22395C132.32 1.31474 132.988 0.636528 133.9 0.636528C134.801 0.636528 135.48 1.32516 135.48 2.22395C135.48 3.11752 134.796 3.80702 133.9 3.80702Z" fill="#464646"/>
<path fill-rule="evenodd" clip-rule="evenodd" d="M134.288 2.37937C134.606 2.36374 134.855 2.19701 134.855 1.74979C134.855 1.17318 134.483 1.02816 133.864 1.02816H132.973V3.41797H133.567V2.40108H133.668L134.208 3.41797H134.892L134.288 2.37937ZM133.905 1.99207H133.567V1.43717H133.853C134.028 1.43717 134.229 1.45888 134.229 1.69074C134.229 1.93823 134.112 1.99207 133.905 1.99207ZM127.144 7.47856L129.9 0.134583H98.6104L87.8669 13.3532L92.8269 0.134583H82.4408L66.3012 44.1959H76.5556L83.4463 25.7704L83.9183 44.1959L115.383 44.1264L118.378 35.6509H106.415L110.346 24.9697H120.205L123.239 16.7582H113.379L116.759 7.47856H127.144ZM94.0915 41.2581L93.434 18.2935L108.938 1.00471L94.0915 41.2581Z" fill="#464646"/>
</g>
<defs>
<filter id="filter0_d_138_244" x="0" y="0" width="168" height="92.8979" filterUnits="userSpaceOnUse" color-interpolation-filters="sRGB">
<feFlood flood-opacity="0" result="BackgroundImageFix"/>
<feColorMatrix in="SourceAlpha" type="matrix" values="0 0 0 0 0 0 0 0 0 0 0 0 0 0 0 0 0 0 127 0" result="hardAlpha"/>
<feOffset dy="4"/>
<feGaussianBlur stdDeviation="2"/>
<feComposite in2="hardAlpha" operator="out"/>
<feColorMatrix type="matrix" values="0 0 0 0 0 0 0 0 0 0 0 0 0 0 0 0 0 0 0.25 0"/>
<feBlend mode="normal" in2="BackgroundImageFix" result="effect1_dropShadow_138_244"/>
<feBlend mode="normal" in="SourceGraphic" in2="effect1_dropShadow_138_244" result="shape"/>
</filter>
</defs>
</svg>
