<svg width="172" height="79" viewBox="0 0 172 79" fill="none" xmlns="http://www.w3.org/2000/svg">
<path fill-rule="evenodd" clip-rule="evenodd" d="M111.527 4.44022V0H93.694V24.3793H111.527V20.358H98.6564V13.7395H109.928V9.3831H98.6564V4.44022H111.527ZM106.565 26.8926V36.2757H96.806V26.8926H91.7619V51.1893H96.806V40.2971H106.565V51.1893H111.527V26.8926H106.565ZM111.527 58.0567V53.7026H93.694V78.4147H111.527V73.9768H98.6564V67.441H109.928V63.4208H98.6564V58.0567H111.527ZM90.8356 0H85.8733V9.3831H76.1168V0H71.1545V24.3793H76.1168V13.4882H85.8733V24.3793H90.8356V0ZM49.7914 0V4.44022H57.361V24.3793H62.3233V4.44022H69.8929V0H49.7914ZM34.1474 26.2224C26.3255 26.2224 22.2043 30.6626 22.2043 39.0404C22.2043 47.837 26.3255 52.1935 34.1474 52.1935C41.9694 52.1935 46.0065 47.837 46.0065 39.0404C46.0065 30.6626 41.9694 26.2224 34.1474 26.2224ZM27.5871 39.0404C27.5871 33.4273 29.7739 30.6626 34.1474 30.6626C38.8574 30.6626 41.0442 33.4273 41.0442 39.0404C41.0442 44.9898 38.8574 47.837 34.1474 47.837C29.7739 47.837 27.5871 44.9898 27.5871 39.0404ZM15.0552 26.8926V44.067L5.29874 26.8926H0V51.1893H4.70999V34.0975L14.7187 51.1893H20.0175V26.8926H15.0552ZM38.1846 63.7548V58.0567H50.7165V53.7026H33.2223V78.4147H38.1846V68.1112H49.2026V63.7548H38.1846ZM89.9116 31.2491V26.8926H69.8929V31.2491H77.3784V51.1893H82.4249V31.2491H89.9116ZM58.8749 41.89C60.4729 41.89 61.7345 42.1402 62.3233 42.8104L63.2485 51.1893H68.8836V50.6029C68.2949 50.2666 67.9585 48.7598 67.9585 45.9102C67.9585 42.4764 66.6969 40.6322 64.8465 39.7106C67.3697 38.7053 68.6313 36.8622 68.6313 33.7624C68.6313 29.406 66.1081 26.8926 60.8094 26.8926H48.5297V51.1893H53.5762V41.89H58.8749ZM53.5762 37.7837V31.2491H59.8001C62.3233 31.2491 63.5849 32.1706 63.5849 34.3488C63.5849 36.5271 62.3233 37.7837 59.5478 37.7837H53.5762ZM62.3233 53.7026H56.3517L47.6046 78.4147H52.9033L54.8378 73.0541H63.9213L65.4352 78.4147H70.8181L62.3233 53.7026ZM59.2113 59.3134L62.3233 69.034H56.0994L59.2113 59.3134ZM86.7996 61.8267H91.7619C91.5084 59.6497 90.8356 57.8066 89.3205 56.2136C87.1349 54.3705 84.6116 53.1139 81.1633 53.1139C77.7149 53.1139 75.1917 54.3705 73.0049 56.5499C71.1545 58.727 69.8929 61.8267 69.8929 65.933C69.8929 74.6459 73.5936 79 80.8268 79C87.1349 79 90.5821 75.9002 91.7619 69.9532H86.7996C86.1267 72.8005 83.9388 74.3096 81.1633 74.3096C77.042 74.3096 75.1917 71.5461 75.1917 66.1832C75.1917 60.3199 77.042 57.4703 81.1633 57.4703C83.9388 57.4703 85.538 59.0632 86.7996 61.8267ZM24.4751 78.0808C25.3162 78.0808 25.9891 77.7445 26.4949 77.3268C26.9154 76.8241 27.2507 76.1539 27.2507 75.2335C27.2507 74.227 26.9142 73.5568 26.4949 73.1379C25.9902 72.7202 25.3174 72.4677 24.4751 72.4677H24.391C23.3818 72.4677 22.7089 72.7202 22.2884 73.1379C21.869 73.5556 21.6155 74.227 21.6155 75.2335V75.3149C21.6155 76.1539 21.8678 76.8241 22.2884 77.3268C22.7089 77.7445 23.3829 78.0808 24.391 78.0808H24.4751ZM24.391 78.751C23.2135 78.751 22.3725 78.3333 21.7837 77.7445C21.195 77.1581 20.9426 76.3214 20.9426 75.3149V75.2335C20.9426 74.0583 21.195 73.2217 21.7837 72.6364C22.3725 72.0499 23.2135 71.7975 24.391 71.7975H24.4751C25.4844 71.7975 26.3255 72.0499 26.9142 72.6364C27.503 73.2228 27.9235 74.0594 27.9235 75.2335C27.9235 76.3226 27.503 77.1581 26.9142 77.7445C26.5952 78.0652 26.2152 78.3194 25.7964 78.4922C25.3776 78.6651 24.9284 78.753 24.4751 78.751H24.391ZM24.7275 74.8972H24.8116C25.148 74.8972 25.3162 74.7285 25.3162 74.3108V74.227C25.3162 74.227 25.2321 74.227 25.2321 74.1432C25.148 74.0594 24.9798 74.0594 24.7275 74.0594H23.8023V74.8984L24.7275 74.8972ZM25.3162 75.4837L25.9891 76.3226C26.0732 76.489 25.9891 76.6566 25.905 76.7403C25.7367 76.909 25.4844 76.8241 25.4003 76.7403L24.5592 75.5674H23.8023V76.4878C23.8023 76.6566 23.6341 76.8241 23.4659 76.8241C23.2976 76.8241 23.1294 76.6554 23.1294 76.4878V73.7243C23.1294 73.5556 23.2976 73.3904 23.4659 73.3904H24.8116C25.148 73.3904 25.4844 73.4718 25.6526 73.6406C25.7367 73.7243 25.8209 73.7243 25.8209 73.8093C25.9891 73.978 25.9891 74.1432 25.9891 74.3119C25.9891 74.981 25.8209 75.3149 25.3162 75.4837ZM114.974 0C130.619 0 144.159 5.69688 155.093 16.588C166.364 27.8142 172 41.2186 172 56.8839V78.4147H149.123V56.2136C149.123 47.5031 146.011 39.9619 139.703 33.7624C138.188 32.1706 136.591 30.914 134.741 29.6573C129.694 26.2224 123.723 24.7144 117.499 24.7144H114.975V0H114.974ZM146.934 78.4147H129.103V61.2403C129.103 58.393 128.179 56.2136 126.245 54.3705C124.394 52.446 121.871 51.5233 119.348 51.5233H114.974V26.8926H117.497C124.057 26.8926 129.692 28.7357 134.739 32.5057C136.001 33.0922 137.263 34.3488 138.187 35.2704C144.159 41.2198 146.934 48.0895 146.934 56.2148V78.4147ZM126.917 78.4147H114.973V53.7026H119.348C121.282 53.7026 123.133 54.3705 124.73 55.8797C125.991 57.1364 126.917 59.0632 126.917 61.2403V78.4147Z" fill="#464646"/>
</svg>
